<?xml version='1.0' encoding='utf-8'?>
<mlt LC_NUMERIC="C" producer="main_bin" version="7.4.0" root="/home/sergi/Programming/comboking/report/video">
 <profile frame_rate_num="30" sample_aspect_num="1" display_aspect_den="9" colorspace="709" progressive="1" description="HD 1080p 30 fps" display_aspect_num="16" frame_rate_den="1" width="1920" height="1080" sample_aspect_den="1"/>
 <producer id="producer0" in="00:00:00.000" out="00:21:47.033">
  <property name="length">39212</property>
  <property name="eof">pause</property>
  <property name="resource">2022-02-26_17-56-56.mp4</property>
  <property name="audio_index">1</property>
  <property name="video_index">0</property>
  <property name="mute_on_pause">0</property>
  <property name="mlt_service">avformat-novalidate</property>
  <property name="seekable">1</property>
  <property name="aspect_ratio">1</property>
  <property name="kdenlive:clipname"/>
  <property name="kdenlive:folderid">-1</property>
  <property name="kdenlive:id">2</property>
  <property name="kdenlive:file_size">96928905</property>
  <property name="kdenlive:file_hash">53575064412cf67ecb87bdfb074d6200</property>
  <property name="kdenlive:audio_max1">251</property>
  <property name="meta.media.nb_streams">2</property>
  <property name="meta.media.0.stream.type">video</property>
  <property name="meta.media.0.stream.frame_rate">30</property>
  <property name="meta.media.0.stream.sample_aspect_ratio">1</property>
  <property name="meta.media.0.codec.width">1920</property>
  <property name="meta.media.0.codec.height">1080</property>
  <property name="meta.media.0.codec.rotate">0</property>
  <property name="meta.media.0.codec.pix_fmt">yuv420p</property>
  <property name="meta.media.0.codec.sample_aspect_ratio">1</property>
  <property name="meta.media.0.codec.colorspace">709</property>
  <property name="meta.media.0.codec.color_trc">1</property>
  <property name="meta.media.0.codec.name">h264</property>
  <property name="meta.media.0.codec.long_name">H.264 / AVC / MPEG-4 AVC / MPEG-4 part 10</property>
  <property name="meta.media.0.codec.bit_rate">389806</property>
  <property name="meta.attr.0.stream.handler_name.markup">VideoHandler</property>
  <property name="meta.attr.0.stream.vendor_id.markup">[0][0][0][0]</property>
  <property name="meta.media.1.stream.type">audio</property>
  <property name="meta.media.1.codec.sample_fmt">fltp</property>
  <property name="meta.media.1.codec.sample_rate">48000</property>
  <property name="meta.media.1.codec.channels">2</property>
  <property name="meta.media.1.codec.name">aac</property>
  <property name="meta.media.1.codec.long_name">AAC (Advanced Audio Coding)</property>
  <property name="meta.media.1.codec.bit_rate">192000</property>
  <property name="meta.attr.1.stream.handler_name.markup">SoundHandler</property>
  <property name="meta.attr.1.stream.vendor_id.markup">[0][0][0][0]</property>
  <property name="meta.attr.major_brand.markup">isom</property>
  <property name="meta.attr.minor_version.markup">512</property>
  <property name="meta.attr.compatible_brands.markup">isomiso2avc1mp41</property>
  <property name="meta.attr.encoder.markup">Lavf58.76.100</property>
  <property name="meta.media.sample_aspect_num">1</property>
  <property name="meta.media.sample_aspect_den">1</property>
  <property name="meta.media.frame_rate_num">39211000</property>
  <property name="meta.media.frame_rate_den">1307033</property>
  <property name="meta.media.colorspace">709</property>
  <property name="meta.media.color_trc">1</property>
  <property name="meta.media.has_b_frames">1</property>
  <property name="meta.media.width">1920</property>
  <property name="meta.media.height">1080</property>
  <property name="meta.media.color_range">mpeg</property>
  <property name="meta.media.top_field_first">0</property>
  <property name="meta.media.progressive">1</property>
 </producer>
 <producer id="producer1" in="00:00:00.000" out="00:00:53.133">
  <property name="length">1595</property>
  <property name="eof">pause</property>
  <property name="resource">Screen_Recording_20220226-183401_ComboKing.mp4</property>
  <property name="audio_index">0</property>
  <property name="video_index">1</property>
  <property name="mute_on_pause">0</property>
  <property name="mlt_service">avformat-novalidate</property>
  <property name="meta.media.nb_streams">2</property>
  <property name="meta.media.0.stream.type">audio</property>
  <property name="meta.media.0.codec.sample_fmt">fltp</property>
  <property name="meta.media.0.codec.sample_rate">48000</property>
  <property name="meta.media.0.codec.channels">2</property>
  <property name="meta.media.0.codec.name">aac</property>
  <property name="meta.media.0.codec.long_name">AAC (Advanced Audio Coding)</property>
  <property name="meta.media.0.codec.bit_rate">191928</property>
  <property name="meta.attr.0.stream.creation_time.markup">2022-02-26T18:33:59.000000Z</property>
  <property name="meta.attr.0.stream.language.markup">eng</property>
  <property name="meta.attr.0.stream.handler_name.markup">SoundHandle</property>
  <property name="meta.attr.0.stream.vendor_id.markup">[0][0][0][0]</property>
  <property name="meta.media.1.stream.type">video</property>
  <property name="meta.media.1.stream.frame_rate">59.8234</property>
  <property name="meta.media.1.stream.sample_aspect_ratio">1</property>
  <property name="meta.media.1.codec.width">1080</property>
  <property name="meta.media.1.codec.height">2220</property>
  <property name="meta.media.1.codec.rotate">0</property>
  <property name="meta.media.1.codec.pix_fmt">yuv420p</property>
  <property name="meta.media.1.codec.sample_aspect_ratio">0</property>
  <property name="meta.media.1.codec.colorspace">709</property>
  <property name="meta.media.1.codec.color_trc">1</property>
  <property name="meta.media.1.codec.name">h264</property>
  <property name="meta.media.1.codec.long_name">H.264 / AVC / MPEG-4 AVC / MPEG-4 part 10</property>
  <property name="meta.media.1.codec.bit_rate">2158357</property>
  <property name="meta.attr.1.stream.creation_time.markup">2022-02-26T18:33:59.000000Z</property>
  <property name="meta.attr.1.stream.language.markup">eng</property>
  <property name="meta.attr.1.stream.handler_name.markup">VideoHandle</property>
  <property name="meta.attr.1.stream.vendor_id.markup">[0][0][0][0]</property>
  <property name="meta.attr.major_brand.markup">mp42</property>
  <property name="meta.attr.minor_version.markup">0</property>
  <property name="meta.attr.compatible_brands.markup">isommp42</property>
  <property name="meta.attr.creation_time.markup">2022-02-26T18:33:59.000000Z</property>
  <property name="meta.attr.com.android.version.markup">10</property>
  <property name="seekable">1</property>
  <property name="meta.media.sample_aspect_num">1</property>
  <property name="meta.media.sample_aspect_den">1</property>
  <property name="aspect_ratio">1</property>
  <property name="kdenlive:clipname"/>
  <property name="kdenlive:folderid">-1</property>
  <property name="meta.media.frame_rate_num">1017</property>
  <property name="meta.media.frame_rate_den">17</property>
  <property name="meta.media.colorspace">709</property>
  <property name="meta.media.color_trc">1</property>
  <property name="meta.media.has_b_frames">0</property>
  <property name="meta.media.width">1080</property>
  <property name="meta.media.height">2220</property>
  <property name="meta.media.color_range">mpeg</property>
  <property name="kdenlive:id">3</property>
  <property name="kdenlive:file_size">15665175</property>
  <property name="kdenlive:file_hash">cd46a238b8caf96d9d5919629f2a15b7</property>
  <property name="meta.media.variable_frame_rate">1</property>
  <property name="meta.media.top_field_first">0</property>
  <property name="meta.media.progressive">1</property>
  <property name="kdenlive:audio_max0">244</property>
  <property name="kdenlive:activeeffect">0</property>
 </producer>
 <producer id="producer2" in="00:00:00.000" out="00:00:22.967">
  <property name="length">690</property>
  <property name="eof">pause</property>
  <property name="resource"/>
  <property name="progressive">1</property>
  <property name="aspect_ratio">1</property>
  <property name="seekable">1</property>
  <property name="mlt_service">kdenlivetitle</property>
  <property name="kdenlive:duration">00:00:03.000</property>
  <property name="kdenlive:clipname">Test no.</property>
  <property name="xmldata">&lt;kdenlivetitle duration="90" LC_NUMERIC="C" width="1920" height="1080" out="89">
 &lt;item type="QGraphicsTextItem" z-index="1">
  &lt;position x="379" y="851">
   &lt;transform>1,0,0,0,1,0,0,0,1&lt;/transform>
  &lt;/position>
  &lt;content line-spacing="0" shadow="1;#64000000;3;3;3" font-underline="0" box-height="205" font="Noto Sans" letter-spacing="0" font-pixel-size="150" font-italic="0" typewriter="0;2;1;0;0" alignment="2" font-weight="50" box-width="88.7969" font-color="255,255,255,255">1&lt;/content>
 &lt;/item>
 &lt;item type="QGraphicsTextItem" z-index="0">
  &lt;position x="60" y="929">
   &lt;transform>1,0,0,0,1,0,0,0,1&lt;/transform>
  &lt;/position>
  &lt;content line-spacing="0" shadow="1;#64000000;3;3;3" font-underline="0" box-height="110" font="Noto Sans" letter-spacing="0" font-pixel-size="80" font-italic="0" typewriter="0;2;1;0;0" alignment="2" font-weight="50" box-width="291.234" font-color="255,255,255,255">Test no.&lt;/content>
 &lt;/item>
 &lt;startviewport rect="0,0,1920,1080"/>
 &lt;endviewport rect="0,0,1920,1080"/>
 &lt;background color="0,0,0,0"/>
&lt;/kdenlivetitle>
</property>
  <property name="kdenlive:folderid">-1</property>
  <property name="kdenlive:id">4</property>
  <property name="kdenlive:file_hash">6e67f4a751ac3efd070ed80018279053</property>
  <property name="force_reload">0</property>
  <property name="kdenlive:activeeffect">-1</property>
  <property name="meta.media.width">1920</property>
  <property name="meta.media.height">1080</property>
 </producer>
 <producer id="producer3" in="00:00:00.000" out="00:00:02.967">
  <property name="length">90</property>
  <property name="eof">pause</property>
  <property name="resource"/>
  <property name="progressive">1</property>
  <property name="aspect_ratio">1</property>
  <property name="seekable">1</property>
  <property name="mlt_service">kdenlivetitle</property>
  <property name="kdenlive:duration">90</property>
  <property name="kdenlive:clipname">Test no.</property>
  <property name="xmldata">&lt;kdenlivetitle duration="90" LC_NUMERIC="C" width="1920" height="1080" out="89">
 &lt;item type="QGraphicsTextItem" z-index="1">
  &lt;position x="379" y="851">
   &lt;transform>1,0,0,0,1,0,0,0,1&lt;/transform>
  &lt;/position>
  &lt;content line-spacing="0" shadow="1;#64000000;3;3;3" font-underline="0" box-height="205" font="Noto Sans" letter-spacing="0" font-pixel-size="150" font-italic="0" typewriter="0;2;1;0;0" alignment="2" font-weight="50" box-width="88.7969" font-color="255,255,255,255">2&lt;/content>
 &lt;/item>
 &lt;item type="QGraphicsTextItem" z-index="0">
  &lt;position x="60" y="929">
   &lt;transform>1,0,0,0,1,0,0,0,1&lt;/transform>
  &lt;/position>
  &lt;content line-spacing="0" shadow="1;#64000000;3;3;3" font-underline="0" box-height="110" font="Noto Sans" letter-spacing="0" font-pixel-size="80" font-italic="0" typewriter="0;2;1;0;0" alignment="2" font-weight="50" box-width="291.234" font-color="255,255,255,255">Test no.&lt;/content>
 &lt;/item>
 &lt;startviewport rect="0,0,1920,1080"/>
 &lt;endviewport rect="0,0,1920,1080"/>
 &lt;background color="0,0,0,0"/>
&lt;/kdenlivetitle>
</property>
  <property name="kdenlive:folderid">-1</property>
  <property name="kdenlive:id">5</property>
  <property name="kdenlive:file_hash">7a823a47f77ec8c712bed5eb144c5abc</property>
  <property name="force_reload">0</property>
  <property name="meta.media.width">1920</property>
  <property name="meta.media.height">1080</property>
 </producer>
 <producer id="producer4" in="00:00:00.000" out="00:00:02.967">
  <property name="length">90</property>
  <property name="eof">pause</property>
  <property name="resource"/>
  <property name="progressive">1</property>
  <property name="aspect_ratio">1</property>
  <property name="seekable">1</property>
  <property name="mlt_service">kdenlivetitle</property>
  <property name="kdenlive:duration">90</property>
  <property name="kdenlive:clipname">Test no.</property>
  <property name="xmldata">&lt;kdenlivetitle duration="90" LC_NUMERIC="C" width="1920" height="1080" out="89">
 &lt;item type="QGraphicsTextItem" z-index="1">
  &lt;position x="379" y="851">
   &lt;transform>1,0,0,0,1,0,0,0,1&lt;/transform>
  &lt;/position>
  &lt;content line-spacing="0" shadow="1;#64000000;3;3;3" font-underline="0" box-height="205" font="Noto Sans" letter-spacing="0" font-pixel-size="150" font-italic="0" typewriter="0;2;1;0;0" alignment="2" font-weight="50" box-width="88.7969" font-color="255,255,255,255">3&lt;/content>
 &lt;/item>
 &lt;item type="QGraphicsTextItem" z-index="0">
  &lt;position x="60" y="929">
   &lt;transform>1,0,0,0,1,0,0,0,1&lt;/transform>
  &lt;/position>
  &lt;content line-spacing="0" shadow="1;#64000000;3;3;3" font-underline="0" box-height="110" font="Noto Sans" letter-spacing="0" font-pixel-size="80" font-italic="0" typewriter="0;2;1;0;0" alignment="2" font-weight="50" box-width="291.234" font-color="255,255,255,255">Test no.&lt;/content>
 &lt;/item>
 &lt;startviewport rect="0,0,1920,1080"/>
 &lt;endviewport rect="0,0,1920,1080"/>
 &lt;background color="0,0,0,0"/>
&lt;/kdenlivetitle>
</property>
  <property name="kdenlive:folderid">-1</property>
  <property name="kdenlive:id">6</property>
  <property name="kdenlive:file_hash">5c89932c835a04f4c468cb32a1f4ec5c</property>
  <property name="force_reload">0</property>
  <property name="meta.media.width">1920</property>
  <property name="meta.media.height">1080</property>
 </producer>
 <producer id="producer5" in="00:00:00.000" out="00:00:02.967">
  <property name="length">90</property>
  <property name="eof">pause</property>
  <property name="resource"/>
  <property name="progressive">1</property>
  <property name="aspect_ratio">1</property>
  <property name="seekable">1</property>
  <property name="mlt_service">kdenlivetitle</property>
  <property name="kdenlive:duration">90</property>
  <property name="kdenlive:clipname">Test no.</property>
  <property name="xmldata">&lt;kdenlivetitle duration="90" LC_NUMERIC="C" width="1920" height="1080" out="89">
 &lt;item type="QGraphicsTextItem" z-index="1">
  &lt;position x="379" y="851">
   &lt;transform>1,0,0,0,1,0,0,0,1&lt;/transform>
  &lt;/position>
  &lt;content line-spacing="0" shadow="1;#64000000;3;3;3" font-underline="0" box-height="205" font="Noto Sans" letter-spacing="0" font-pixel-size="150" font-italic="0" typewriter="0;2;1;0;0" alignment="2" font-weight="50" box-width="88.7969" font-color="255,255,255,255">4&lt;/content>
 &lt;/item>
 &lt;item type="QGraphicsTextItem" z-index="0">
  &lt;position x="60" y="929">
   &lt;transform>1,0,0,0,1,0,0,0,1&lt;/transform>
  &lt;/position>
  &lt;content line-spacing="0" shadow="1;#64000000;3;3;3" font-underline="0" box-height="110" font="Noto Sans" letter-spacing="0" font-pixel-size="80" font-italic="0" typewriter="0;2;1;0;0" alignment="2" font-weight="50" box-width="291.234" font-color="255,255,255,255">Test no.&lt;/content>
 &lt;/item>
 &lt;startviewport rect="0,0,1920,1080"/>
 &lt;endviewport rect="0,0,1920,1080"/>
 &lt;background color="0,0,0,0"/>
&lt;/kdenlivetitle>
</property>
  <property name="kdenlive:folderid">-1</property>
  <property name="kdenlive:id">7</property>
  <property name="kdenlive:file_hash">a3c78bd1e19b19ac6872dd9931bc086a</property>
  <property name="force_reload">0</property>
  <property name="meta.media.width">1920</property>
  <property name="meta.media.height">1080</property>
 </producer>
 <producer id="producer6" in="00:00:00.000" out="00:00:02.967">
  <property name="length">90</property>
  <property name="eof">pause</property>
  <property name="resource"/>
  <property name="progressive">1</property>
  <property name="aspect_ratio">1</property>
  <property name="seekable">1</property>
  <property name="mlt_service">kdenlivetitle</property>
  <property name="kdenlive:duration">90</property>
  <property name="kdenlive:clipname">Test no.</property>
  <property name="xmldata">&lt;kdenlivetitle duration="90" LC_NUMERIC="C" width="1920" height="1080" out="89">
 &lt;item type="QGraphicsTextItem" z-index="1">
  &lt;position x="379" y="851">
   &lt;transform>1,0,0,0,1,0,0,0,1&lt;/transform>
  &lt;/position>
  &lt;content line-spacing="0" shadow="1;#64000000;3;3;3" font-underline="0" box-height="205" font="Noto Sans" letter-spacing="0" font-pixel-size="150" font-italic="0" typewriter="0;2;1;0;0" alignment="2" font-weight="50" box-width="88.7969" font-color="255,255,255,255">5&lt;/content>
 &lt;/item>
 &lt;item type="QGraphicsTextItem" z-index="0">
  &lt;position x="60" y="929">
   &lt;transform>1,0,0,0,1,0,0,0,1&lt;/transform>
  &lt;/position>
  &lt;content line-spacing="0" shadow="1;#64000000;3;3;3" font-underline="0" box-height="110" font="Noto Sans" letter-spacing="0" font-pixel-size="80" font-italic="0" typewriter="0;2;1;0;0" alignment="2" font-weight="50" box-width="291.234" font-color="255,255,255,255">Test no.&lt;/content>
 &lt;/item>
 &lt;startviewport rect="0,0,1920,1080"/>
 &lt;endviewport rect="0,0,1920,1080"/>
 &lt;background color="0,0,0,0"/>
&lt;/kdenlivetitle>
</property>
  <property name="kdenlive:folderid">-1</property>
  <property name="kdenlive:id">8</property>
  <property name="kdenlive:file_hash">e24717df2b1f329e0ba8f1b9ec01354f</property>
  <property name="force_reload">0</property>
  <property name="meta.media.width">1920</property>
  <property name="meta.media.height">1080</property>
 </producer>
 <producer id="producer7" in="00:00:00.000" out="00:00:02.967">
  <property name="length">90</property>
  <property name="eof">pause</property>
  <property name="resource"/>
  <property name="progressive">1</property>
  <property name="aspect_ratio">1</property>
  <property name="seekable">1</property>
  <property name="mlt_service">kdenlivetitle</property>
  <property name="kdenlive:duration">90</property>
  <property name="kdenlive:clipname">Test no.</property>
  <property name="xmldata">&lt;kdenlivetitle duration="90" LC_NUMERIC="C" width="1920" height="1080" out="89">
 &lt;item type="QGraphicsTextItem" z-index="1">
  &lt;position x="379" y="851">
   &lt;transform>1,0,0,0,1,0,0,0,1&lt;/transform>
  &lt;/position>
  &lt;content line-spacing="0" shadow="1;#64000000;3;3;3" font-underline="0" box-height="205" font="Noto Sans" letter-spacing="0" font-pixel-size="150" font-italic="0" typewriter="0;2;1;0;0" alignment="2" font-weight="50" box-width="88.7969" font-color="255,255,255,255">6&lt;/content>
 &lt;/item>
 &lt;item type="QGraphicsTextItem" z-index="0">
  &lt;position x="60" y="929">
   &lt;transform>1,0,0,0,1,0,0,0,1&lt;/transform>
  &lt;/position>
  &lt;content line-spacing="0" shadow="1;#64000000;3;3;3" font-underline="0" box-height="110" font="Noto Sans" letter-spacing="0" font-pixel-size="80" font-italic="0" typewriter="0;2;1;0;0" alignment="2" font-weight="50" box-width="291.234" font-color="255,255,255,255">Test no.&lt;/content>
 &lt;/item>
 &lt;startviewport rect="0,0,1920,1080"/>
 &lt;endviewport rect="0,0,1920,1080"/>
 &lt;background color="0,0,0,0"/>
&lt;/kdenlivetitle>
</property>
  <property name="kdenlive:folderid">-1</property>
  <property name="kdenlive:id">9</property>
  <property name="kdenlive:file_hash">01595fca9a170d7aca95c3da13348a29</property>
  <property name="force_reload">0</property>
  <property name="meta.media.width">1920</property>
  <property name="meta.media.height">1080</property>
 </producer>
 <producer id="producer8" in="00:00:00.000" out="00:00:02.967">
  <property name="length">90</property>
  <property name="eof">pause</property>
  <property name="resource"/>
  <property name="progressive">1</property>
  <property name="aspect_ratio">1</property>
  <property name="seekable">1</property>
  <property name="mlt_service">kdenlivetitle</property>
  <property name="kdenlive:duration">90</property>
  <property name="kdenlive:clipname">Test no.</property>
  <property name="xmldata">&lt;kdenlivetitle duration="90" LC_NUMERIC="C" width="1920" height="1080" out="89">
 &lt;item type="QGraphicsTextItem" z-index="1">
  &lt;position x="379" y="851">
   &lt;transform>1,0,0,0,1,0,0,0,1&lt;/transform>
  &lt;/position>
  &lt;content line-spacing="0" shadow="1;#64000000;3;3;3" font-underline="0" box-height="205" font="Noto Sans" letter-spacing="0" font-pixel-size="150" font-italic="0" typewriter="0;2;1;0;0" alignment="2" font-weight="50" box-width="88.7969" font-color="255,255,255,255">7&lt;/content>
 &lt;/item>
 &lt;item type="QGraphicsTextItem" z-index="0">
  &lt;position x="60" y="929">
   &lt;transform>1,0,0,0,1,0,0,0,1&lt;/transform>
  &lt;/position>
  &lt;content line-spacing="0" shadow="1;#64000000;3;3;3" font-underline="0" box-height="110" font="Noto Sans" letter-spacing="0" font-pixel-size="80" font-italic="0" typewriter="0;2;1;0;0" alignment="2" font-weight="50" box-width="291.234" font-color="255,255,255,255">Test no.&lt;/content>
 &lt;/item>
 &lt;startviewport rect="0,0,1920,1080"/>
 &lt;endviewport rect="0,0,1920,1080"/>
 &lt;background color="0,0,0,0"/>
&lt;/kdenlivetitle>
</property>
  <property name="kdenlive:folderid">-1</property>
  <property name="kdenlive:id">10</property>
  <property name="kdenlive:file_hash">5c57a2056eb5d0264b81b39871466f3a</property>
  <property name="force_reload">0</property>
  <property name="meta.media.width">1920</property>
  <property name="meta.media.height">1080</property>
 </producer>
 <producer id="producer9" in="00:00:00.000" out="00:00:02.967">
  <property name="length">90</property>
  <property name="eof">pause</property>
  <property name="resource"/>
  <property name="progressive">1</property>
  <property name="aspect_ratio">1</property>
  <property name="seekable">1</property>
  <property name="mlt_service">kdenlivetitle</property>
  <property name="kdenlive:duration">90</property>
  <property name="kdenlive:clipname">Test no.</property>
  <property name="xmldata">&lt;kdenlivetitle duration="90" LC_NUMERIC="C" width="1920" height="1080" out="89">
 &lt;item type="QGraphicsTextItem" z-index="1">
  &lt;position x="379" y="851">
   &lt;transform>1,0,0,0,1,0,0,0,1&lt;/transform>
  &lt;/position>
  &lt;content line-spacing="0" shadow="1;#64000000;3;3;3" font-underline="0" box-height="205" font="Noto Sans" letter-spacing="0" font-pixel-size="150" font-italic="0" typewriter="0;2;1;0;0" alignment="2" font-weight="50" box-width="88.7969" font-color="255,255,255,255">8&lt;/content>
 &lt;/item>
 &lt;item type="QGraphicsTextItem" z-index="0">
  &lt;position x="60" y="929">
   &lt;transform>1,0,0,0,1,0,0,0,1&lt;/transform>
  &lt;/position>
  &lt;content line-spacing="0" shadow="1;#64000000;3;3;3" font-underline="0" box-height="110" font="Noto Sans" letter-spacing="0" font-pixel-size="80" font-italic="0" typewriter="0;2;1;0;0" alignment="2" font-weight="50" box-width="291.234" font-color="255,255,255,255">Test no.&lt;/content>
 &lt;/item>
 &lt;startviewport rect="0,0,1920,1080"/>
 &lt;endviewport rect="0,0,1920,1080"/>
 &lt;background color="0,0,0,0"/>
&lt;/kdenlivetitle>
</property>
  <property name="kdenlive:folderid">-1</property>
  <property name="kdenlive:id">11</property>
  <property name="kdenlive:file_hash">2e8bda6f545db31f2b433e963c2e7428</property>
  <property name="force_reload">0</property>
  <property name="meta.media.width">1920</property>
  <property name="meta.media.height">1080</property>
 </producer>
 <producer id="producer10" in="00:00:00.000" out="00:00:44.300">
  <property name="length">1330</property>
  <property name="eof">pause</property>
  <property name="resource"/>
  <property name="progressive">1</property>
  <property name="aspect_ratio">1</property>
  <property name="seekable">1</property>
  <property name="mlt_service">kdenlivetitle</property>
  <property name="kdenlive:duration">90</property>
  <property name="kdenlive:clipname">Test no.</property>
  <property name="xmldata">&lt;kdenlivetitle duration="90" LC_NUMERIC="C" width="1920" height="1080" out="89">
 &lt;item type="QGraphicsTextItem" z-index="1">
  &lt;position x="379" y="851">
   &lt;transform>1,0,0,0,1,0,0,0,1&lt;/transform>
  &lt;/position>
  &lt;content line-spacing="0" shadow="1;#64000000;3;3;3" font-underline="0" box-height="205" font="Noto Sans" letter-spacing="0" font-pixel-size="150" font-italic="0" typewriter="0;2;1;0;0" alignment="2" font-weight="50" box-width="308.688" font-color="255,255,255,255">9-10&lt;/content>
 &lt;/item>
 &lt;item type="QGraphicsTextItem" z-index="0">
  &lt;position x="60" y="929">
   &lt;transform>1,0,0,0,1,0,0,0,1&lt;/transform>
  &lt;/position>
  &lt;content line-spacing="0" shadow="1;#64000000;3;3;3" font-underline="0" box-height="110" font="Noto Sans" letter-spacing="0" font-pixel-size="80" font-italic="0" typewriter="0;2;1;0;0" alignment="2" font-weight="50" box-width="291.234" font-color="255,255,255,255">Test no.&lt;/content>
 &lt;/item>
 &lt;startviewport rect="0,0,1920,1080"/>
 &lt;endviewport rect="0,0,1920,1080"/>
 &lt;background color="0,0,0,0"/>
&lt;/kdenlivetitle>
</property>
  <property name="kdenlive:folderid">-1</property>
  <property name="kdenlive:id">12</property>
  <property name="kdenlive:file_hash">1849a7cb75643e99561d9d03536b5745</property>
  <property name="force_reload">0</property>
  <property name="meta.media.width">1920</property>
  <property name="meta.media.height">1080</property>
 </producer>
 <producer id="producer11" in="00:00:00.000" out="00:00:02.967">
  <property name="length">90</property>
  <property name="eof">pause</property>
  <property name="resource"/>
  <property name="progressive">1</property>
  <property name="aspect_ratio">1</property>
  <property name="seekable">1</property>
  <property name="mlt_service">kdenlivetitle</property>
  <property name="kdenlive:duration">90</property>
  <property name="kdenlive:clipname">Test no.</property>
  <property name="xmldata">&lt;kdenlivetitle duration="90" LC_NUMERIC="C" width="1920" height="1080" out="89">
 &lt;item type="QGraphicsTextItem" z-index="1">
  &lt;position x="379" y="851">
   &lt;transform>1,0,0,0,1,0,0,0,1&lt;/transform>
  &lt;/position>
  &lt;content line-spacing="0" shadow="1;#64000000;3;3;3" font-underline="0" box-height="205" font="Noto Sans" letter-spacing="0" font-pixel-size="150" font-italic="0" typewriter="0;2;1;0;0" alignment="2" font-weight="50" box-width="174.594" font-color="255,255,255,255">10&lt;/content>
 &lt;/item>
 &lt;item type="QGraphicsTextItem" z-index="0">
  &lt;position x="60" y="929">
   &lt;transform>1,0,0,0,1,0,0,0,1&lt;/transform>
  &lt;/position>
  &lt;content line-spacing="0" shadow="1;#64000000;3;3;3" font-underline="0" box-height="110" font="Noto Sans" letter-spacing="0" font-pixel-size="80" font-italic="0" typewriter="0;2;1;0;0" alignment="2" font-weight="50" box-width="291.234" font-color="255,255,255,255">Test no.&lt;/content>
 &lt;/item>
 &lt;startviewport rect="0,0,1920,1080"/>
 &lt;endviewport rect="0,0,1920,1080"/>
 &lt;background color="0,0,0,0"/>
&lt;/kdenlivetitle>
</property>
  <property name="kdenlive:folderid">-1</property>
  <property name="kdenlive:id">13</property>
  <property name="kdenlive:file_hash">4b5508f705aa1920ff1608e518c911bd</property>
  <property name="force_reload">0</property>
  <property name="meta.media.width">1920</property>
  <property name="meta.media.height">1080</property>
 </producer>
 <producer id="producer12" in="00:00:00.000" out="00:00:02.967">
  <property name="length">90</property>
  <property name="eof">pause</property>
  <property name="resource"/>
  <property name="progressive">1</property>
  <property name="aspect_ratio">1</property>
  <property name="seekable">1</property>
  <property name="mlt_service">kdenlivetitle</property>
  <property name="kdenlive:duration">90</property>
  <property name="kdenlive:clipname">Test no.</property>
  <property name="xmldata">&lt;kdenlivetitle duration="90" LC_NUMERIC="C" width="1920" height="1080" out="89">
 &lt;item type="QGraphicsTextItem" z-index="1">
  &lt;position x="379" y="851">
   &lt;transform>1,0,0,0,1,0,0,0,1&lt;/transform>
  &lt;/position>
  &lt;content line-spacing="0" shadow="1;#64000000;3;3;3" font-underline="0" box-height="205" font="Noto Sans" letter-spacing="0" font-pixel-size="150" font-italic="0" typewriter="0;2;1;0;0" alignment="2" font-weight="50" box-width="174.594" font-color="255,255,255,255">11&lt;/content>
 &lt;/item>
 &lt;item type="QGraphicsTextItem" z-index="0">
  &lt;position x="60" y="929">
   &lt;transform>1,0,0,0,1,0,0,0,1&lt;/transform>
  &lt;/position>
  &lt;content line-spacing="0" shadow="1;#64000000;3;3;3" font-underline="0" box-height="110" font="Noto Sans" letter-spacing="0" font-pixel-size="80" font-italic="0" typewriter="0;2;1;0;0" alignment="2" font-weight="50" box-width="291.234" font-color="255,255,255,255">Test no.&lt;/content>
 &lt;/item>
 &lt;startviewport rect="0,0,1920,1080"/>
 &lt;endviewport rect="0,0,1920,1080"/>
 &lt;background color="0,0,0,0"/>
&lt;/kdenlivetitle>
</property>
  <property name="kdenlive:folderid">-1</property>
  <property name="kdenlive:id">14</property>
  <property name="kdenlive:file_hash">66c3883064b310713b79d1d4a7443eb4</property>
  <property name="force_reload">0</property>
  <property name="meta.media.width">1920</property>
  <property name="meta.media.height">1080</property>
 </producer>
 <producer id="producer13" in="00:00:00.000" out="00:00:02.967">
  <property name="length">90</property>
  <property name="eof">pause</property>
  <property name="resource"/>
  <property name="progressive">1</property>
  <property name="aspect_ratio">1</property>
  <property name="seekable">1</property>
  <property name="mlt_service">kdenlivetitle</property>
  <property name="kdenlive:duration">90</property>
  <property name="kdenlive:clipname">Test no.</property>
  <property name="xmldata">&lt;kdenlivetitle duration="90" LC_NUMERIC="C" width="1920" height="1080" out="89">
 &lt;item type="QGraphicsTextItem" z-index="1">
  &lt;position x="379" y="851">
   &lt;transform>1,0,0,0,1,0,0,0,1&lt;/transform>
  &lt;/position>
  &lt;content line-spacing="0" shadow="1;#64000000;3;3;3" font-underline="0" box-height="205" font="Noto Sans" letter-spacing="0" font-pixel-size="150" font-italic="0" typewriter="0;2;1;0;0" alignment="2" font-weight="50" box-width="174.594" font-color="255,255,255,255">12&lt;/content>
 &lt;/item>
 &lt;item type="QGraphicsTextItem" z-index="0">
  &lt;position x="60" y="929">
   &lt;transform>1,0,0,0,1,0,0,0,1&lt;/transform>
  &lt;/position>
  &lt;content line-spacing="0" shadow="1;#64000000;3;3;3" font-underline="0" box-height="110" font="Noto Sans" letter-spacing="0" font-pixel-size="80" font-italic="0" typewriter="0;2;1;0;0" alignment="2" font-weight="50" box-width="291.234" font-color="255,255,255,255">Test no.&lt;/content>
 &lt;/item>
 &lt;startviewport rect="0,0,1920,1080"/>
 &lt;endviewport rect="0,0,1920,1080"/>
 &lt;background color="0,0,0,0"/>
&lt;/kdenlivetitle>
</property>
  <property name="kdenlive:folderid">-1</property>
  <property name="kdenlive:id">15</property>
  <property name="kdenlive:file_hash">02c00650a09f88bef10337be5f46ec9d</property>
  <property name="force_reload">0</property>
  <property name="meta.media.width">1920</property>
  <property name="meta.media.height">1080</property>
 </producer>
 <producer id="producer14" in="00:00:00.000" out="00:00:19.667">
  <property name="length">591</property>
  <property name="eof">pause</property>
  <property name="resource"/>
  <property name="progressive">1</property>
  <property name="aspect_ratio">1</property>
  <property name="seekable">1</property>
  <property name="mlt_service">kdenlivetitle</property>
  <property name="kdenlive:duration">90</property>
  <property name="kdenlive:clipname">Test no.</property>
  <property name="xmldata">&lt;kdenlivetitle duration="90" LC_NUMERIC="C" width="1920" height="1080" out="89">
 &lt;item type="QGraphicsTextItem" z-index="1">
  &lt;position x="379" y="851">
   &lt;transform>1,0,0,0,1,0,0,0,1&lt;/transform>
  &lt;/position>
  &lt;content line-spacing="0" shadow="1;#64000000;3;3;3" font-underline="0" box-height="205" font="Noto Sans" letter-spacing="0" font-pixel-size="150" font-italic="0" typewriter="0;2;1;0;0" alignment="2" font-weight="50" box-width="174.594" font-color="255,255,255,255">13&lt;/content>
 &lt;/item>
 &lt;item type="QGraphicsTextItem" z-index="0">
  &lt;position x="60" y="929">
   &lt;transform>1,0,0,0,1,0,0,0,1&lt;/transform>
  &lt;/position>
  &lt;content line-spacing="0" shadow="1;#64000000;3;3;3" font-underline="0" box-height="110" font="Noto Sans" letter-spacing="0" font-pixel-size="80" font-italic="0" typewriter="0;2;1;0;0" alignment="2" font-weight="50" box-width="291.234" font-color="255,255,255,255">Test no.&lt;/content>
 &lt;/item>
 &lt;startviewport rect="0,0,1920,1080"/>
 &lt;endviewport rect="0,0,1920,1080"/>
 &lt;background color="0,0,0,0"/>
&lt;/kdenlivetitle>
</property>
  <property name="kdenlive:folderid">-1</property>
  <property name="kdenlive:id">16</property>
  <property name="kdenlive:file_hash">315b71c1d150511c949ae430eb0f84c7</property>
  <property name="force_reload">0</property>
  <property name="meta.media.width">1920</property>
  <property name="meta.media.height">1080</property>
 </producer>
 <producer id="producer15" in="00:00:00.000" out="00:00:02.967">
  <property name="length">90</property>
  <property name="eof">pause</property>
  <property name="resource"/>
  <property name="progressive">1</property>
  <property name="aspect_ratio">1</property>
  <property name="seekable">1</property>
  <property name="mlt_service">kdenlivetitle</property>
  <property name="kdenlive:duration">90</property>
  <property name="kdenlive:clipname">Test no.</property>
  <property name="xmldata">&lt;kdenlivetitle duration="90" LC_NUMERIC="C" width="1920" height="1080" out="89">
 &lt;item type="QGraphicsTextItem" z-index="1">
  &lt;position x="379" y="851">
   &lt;transform>1,0,0,0,1,0,0,0,1&lt;/transform>
  &lt;/position>
  &lt;content line-spacing="0" shadow="1;#64000000;3;3;3" font-underline="0" box-height="205" font="Noto Sans" letter-spacing="0" font-pixel-size="150" font-italic="0" typewriter="0;2;1;0;0" alignment="2" font-weight="50" box-width="174.594" font-color="255,255,255,255">14&lt;/content>
 &lt;/item>
 &lt;item type="QGraphicsTextItem" z-index="0">
  &lt;position x="60" y="929">
   &lt;transform>1,0,0,0,1,0,0,0,1&lt;/transform>
  &lt;/position>
  &lt;content line-spacing="0" shadow="1;#64000000;3;3;3" font-underline="0" box-height="110" font="Noto Sans" letter-spacing="0" font-pixel-size="80" font-italic="0" typewriter="0;2;1;0;0" alignment="2" font-weight="50" box-width="291.234" font-color="255,255,255,255">Test no.&lt;/content>
 &lt;/item>
 &lt;startviewport rect="0,0,1920,1080"/>
 &lt;endviewport rect="0,0,1920,1080"/>
 &lt;background color="0,0,0,0"/>
&lt;/kdenlivetitle>
</property>
  <property name="kdenlive:file_hash">fe8a93fcc4d0a6c0a85a2b0ff0f79f23</property>
  <property name="kdenlive:folderid">-1</property>
  <property name="kdenlive:id">17</property>
  <property name="force_reload">0</property>
  <property name="meta.media.width">1920</property>
  <property name="meta.media.height">1080</property>
 </producer>
 <producer id="producer16" in="00:00:00.000" out="00:00:02.967">
  <property name="length">90</property>
  <property name="eof">pause</property>
  <property name="resource"/>
  <property name="progressive">1</property>
  <property name="aspect_ratio">1</property>
  <property name="seekable">1</property>
  <property name="mlt_service">kdenlivetitle</property>
  <property name="kdenlive:duration">90</property>
  <property name="kdenlive:clipname">Test no.</property>
  <property name="xmldata">&lt;kdenlivetitle duration="90" LC_NUMERIC="C" width="1920" height="1080" out="89">
 &lt;item type="QGraphicsTextItem" z-index="1">
  &lt;position x="379" y="851">
   &lt;transform>1,0,0,0,1,0,0,0,1&lt;/transform>
  &lt;/position>
  &lt;content line-spacing="0" shadow="1;#64000000;3;3;3" font-underline="0" box-height="205" font="Noto Sans" letter-spacing="0" font-pixel-size="150" font-italic="0" typewriter="0;2;1;0;0" alignment="2" font-weight="50" box-width="174.594" font-color="255,255,255,255">15&lt;/content>
 &lt;/item>
 &lt;item type="QGraphicsTextItem" z-index="0">
  &lt;position x="60" y="929">
   &lt;transform>1,0,0,0,1,0,0,0,1&lt;/transform>
  &lt;/position>
  &lt;content line-spacing="0" shadow="1;#64000000;3;3;3" font-underline="0" box-height="110" font="Noto Sans" letter-spacing="0" font-pixel-size="80" font-italic="0" typewriter="0;2;1;0;0" alignment="2" font-weight="50" box-width="291.234" font-color="255,255,255,255">Test no.&lt;/content>
 &lt;/item>
 &lt;startviewport rect="0,0,1920,1080"/>
 &lt;endviewport rect="0,0,1920,1080"/>
 &lt;background color="0,0,0,0"/>
&lt;/kdenlivetitle>
</property>
  <property name="kdenlive:file_hash">b159ad1e7eb370dde49fd6ef811a6f5a</property>
  <property name="kdenlive:folderid">-1</property>
  <property name="kdenlive:id">18</property>
  <property name="force_reload">0</property>
  <property name="meta.media.width">1920</property>
  <property name="meta.media.height">1080</property>
 </producer>
 <producer id="producer17" in="00:00:00.000" out="00:00:02.967">
  <property name="length">90</property>
  <property name="eof">pause</property>
  <property name="resource"/>
  <property name="progressive">1</property>
  <property name="aspect_ratio">1</property>
  <property name="seekable">1</property>
  <property name="mlt_service">kdenlivetitle</property>
  <property name="kdenlive:duration">90</property>
  <property name="kdenlive:clipname">Test no.</property>
  <property name="xmldata">&lt;kdenlivetitle duration="90" LC_NUMERIC="C" width="1920" height="1080" out="89">
 &lt;item type="QGraphicsTextItem" z-index="1">
  &lt;position x="379" y="851">
   &lt;transform>1,0,0,0,1,0,0,0,1&lt;/transform>
  &lt;/position>
  &lt;content line-spacing="0" shadow="1;#64000000;3;3;3" font-underline="0" box-height="205" font="Noto Sans" letter-spacing="0" font-pixel-size="150" font-italic="0" typewriter="0;2;1;0;0" alignment="2" font-weight="50" box-width="174.594" font-color="255,255,255,255">16&lt;/content>
 &lt;/item>
 &lt;item type="QGraphicsTextItem" z-index="0">
  &lt;position x="60" y="929">
   &lt;transform>1,0,0,0,1,0,0,0,1&lt;/transform>
  &lt;/position>
  &lt;content line-spacing="0" shadow="1;#64000000;3;3;3" font-underline="0" box-height="110" font="Noto Sans" letter-spacing="0" font-pixel-size="80" font-italic="0" typewriter="0;2;1;0;0" alignment="2" font-weight="50" box-width="291.234" font-color="255,255,255,255">Test no.&lt;/content>
 &lt;/item>
 &lt;startviewport rect="0,0,1920,1080"/>
 &lt;endviewport rect="0,0,1920,1080"/>
 &lt;background color="0,0,0,0"/>
&lt;/kdenlivetitle>
</property>
  <property name="kdenlive:file_hash">e7180402b9419616df9af4a0249d3cbb</property>
  <property name="kdenlive:folderid">-1</property>
  <property name="kdenlive:id">19</property>
  <property name="force_reload">0</property>
  <property name="meta.media.width">1920</property>
  <property name="meta.media.height">1080</property>
 </producer>
 <producer id="producer18" in="00:00:00.000" out="00:00:02.967">
  <property name="length">90</property>
  <property name="eof">pause</property>
  <property name="resource"/>
  <property name="progressive">1</property>
  <property name="aspect_ratio">1</property>
  <property name="seekable">1</property>
  <property name="mlt_service">kdenlivetitle</property>
  <property name="kdenlive:duration">90</property>
  <property name="kdenlive:clipname">Test no.</property>
  <property name="xmldata">&lt;kdenlivetitle duration="90" LC_NUMERIC="C" width="1920" height="1080" out="89">
 &lt;item type="QGraphicsTextItem" z-index="1">
  &lt;position x="379" y="851">
   &lt;transform>1,0,0,0,1,0,0,0,1&lt;/transform>
  &lt;/position>
  &lt;content line-spacing="0" shadow="1;#64000000;3;3;3" font-underline="0" box-height="205" font="Noto Sans" letter-spacing="0" font-pixel-size="150" font-italic="0" typewriter="0;2;1;0;0" alignment="2" font-weight="50" box-width="174.594" font-color="255,255,255,255">17&lt;/content>
 &lt;/item>
 &lt;item type="QGraphicsTextItem" z-index="0">
  &lt;position x="60" y="929">
   &lt;transform>1,0,0,0,1,0,0,0,1&lt;/transform>
  &lt;/position>
  &lt;content line-spacing="0" shadow="1;#64000000;3;3;3" font-underline="0" box-height="110" font="Noto Sans" letter-spacing="0" font-pixel-size="80" font-italic="0" typewriter="0;2;1;0;0" alignment="2" font-weight="50" box-width="291.234" font-color="255,255,255,255">Test no.&lt;/content>
 &lt;/item>
 &lt;startviewport rect="0,0,1920,1080"/>
 &lt;endviewport rect="0,0,1920,1080"/>
 &lt;background color="0,0,0,0"/>
&lt;/kdenlivetitle>
</property>
  <property name="kdenlive:folderid">-1</property>
  <property name="kdenlive:id">20</property>
  <property name="kdenlive:file_hash">d138b5225e39862e248e7c570e90cbd3</property>
  <property name="force_reload">0</property>
  <property name="meta.media.width">1920</property>
  <property name="meta.media.height">1080</property>
 </producer>
 <producer id="producer19" in="00:00:00.000" out="00:00:02.967">
  <property name="length">90</property>
  <property name="eof">pause</property>
  <property name="resource"/>
  <property name="progressive">1</property>
  <property name="aspect_ratio">1</property>
  <property name="seekable">1</property>
  <property name="mlt_service">kdenlivetitle</property>
  <property name="kdenlive:duration">90</property>
  <property name="kdenlive:clipname">Test no.</property>
  <property name="xmldata">&lt;kdenlivetitle duration="90" LC_NUMERIC="C" width="1920" height="1080" out="89">
 &lt;item type="QGraphicsTextItem" z-index="1">
  &lt;position x="379" y="851">
   &lt;transform>1,0,0,0,1,0,0,0,1&lt;/transform>
  &lt;/position>
  &lt;content line-spacing="0" shadow="1;#64000000;3;3;3" font-underline="0" box-height="205" font="Noto Sans" letter-spacing="0" font-pixel-size="150" font-italic="0" typewriter="0;2;1;0;0" alignment="2" font-weight="50" box-width="174.594" font-color="255,255,255,255">18&lt;/content>
 &lt;/item>
 &lt;item type="QGraphicsTextItem" z-index="0">
  &lt;position x="60" y="929">
   &lt;transform>1,0,0,0,1,0,0,0,1&lt;/transform>
  &lt;/position>
  &lt;content line-spacing="0" shadow="1;#64000000;3;3;3" font-underline="0" box-height="110" font="Noto Sans" letter-spacing="0" font-pixel-size="80" font-italic="0" typewriter="0;2;1;0;0" alignment="2" font-weight="50" box-width="291.234" font-color="255,255,255,255">Test no.&lt;/content>
 &lt;/item>
 &lt;startviewport rect="0,0,1920,1080"/>
 &lt;endviewport rect="0,0,1920,1080"/>
 &lt;background color="0,0,0,0"/>
&lt;/kdenlivetitle>
</property>
  <property name="kdenlive:folderid">-1</property>
  <property name="kdenlive:id">21</property>
  <property name="kdenlive:file_hash">7416ccff9b6b53cf8bde988949d1ccf0</property>
  <property name="force_reload">0</property>
  <property name="meta.media.width">1920</property>
  <property name="meta.media.height">1080</property>
 </producer>
 <producer id="producer20" in="00:00:00.000" out="00:00:02.967">
  <property name="length">90</property>
  <property name="eof">pause</property>
  <property name="resource"/>
  <property name="progressive">1</property>
  <property name="aspect_ratio">1</property>
  <property name="seekable">1</property>
  <property name="mlt_service">kdenlivetitle</property>
  <property name="kdenlive:duration">90</property>
  <property name="kdenlive:clipname">Test no.</property>
  <property name="xmldata">&lt;kdenlivetitle duration="90" LC_NUMERIC="C" width="1920" height="1080" out="89">
 &lt;item type="QGraphicsTextItem" z-index="1">
  &lt;position x="379" y="851">
   &lt;transform>1,0,0,0,1,0,0,0,1&lt;/transform>
  &lt;/position>
  &lt;content line-spacing="0" shadow="1;#64000000;3;3;3" font-underline="0" box-height="205" font="Noto Sans" letter-spacing="0" font-pixel-size="150" font-italic="0" typewriter="0;2;1;0;0" alignment="2" font-weight="50" box-width="174.594" font-color="255,255,255,255">19&lt;/content>
 &lt;/item>
 &lt;item type="QGraphicsTextItem" z-index="0">
  &lt;position x="60" y="929">
   &lt;transform>1,0,0,0,1,0,0,0,1&lt;/transform>
  &lt;/position>
  &lt;content line-spacing="0" shadow="1;#64000000;3;3;3" font-underline="0" box-height="110" font="Noto Sans" letter-spacing="0" font-pixel-size="80" font-italic="0" typewriter="0;2;1;0;0" alignment="2" font-weight="50" box-width="291.234" font-color="255,255,255,255">Test no.&lt;/content>
 &lt;/item>
 &lt;startviewport rect="0,0,1920,1080"/>
 &lt;endviewport rect="0,0,1920,1080"/>
 &lt;background color="0,0,0,0"/>
&lt;/kdenlivetitle>
</property>
  <property name="kdenlive:folderid">-1</property>
  <property name="kdenlive:id">22</property>
  <property name="kdenlive:file_hash">09b5abaf4de3cd39e7a7a3c6690e5e0f</property>
  <property name="force_reload">0</property>
  <property name="meta.media.width">1920</property>
  <property name="meta.media.height">1080</property>
 </producer>
 <producer id="producer21" in="00:00:00.000" out="00:00:02.967">
  <property name="length">90</property>
  <property name="eof">pause</property>
  <property name="resource"/>
  <property name="progressive">1</property>
  <property name="aspect_ratio">1</property>
  <property name="seekable">1</property>
  <property name="mlt_service">kdenlivetitle</property>
  <property name="kdenlive:duration">90</property>
  <property name="kdenlive:clipname">Test no.</property>
  <property name="xmldata">&lt;kdenlivetitle duration="90" LC_NUMERIC="C" width="1920" height="1080" out="89">
 &lt;item type="QGraphicsTextItem" z-index="1">
  &lt;position x="379" y="851">
   &lt;transform>1,0,0,0,1,0,0,0,1&lt;/transform>
  &lt;/position>
  &lt;content line-spacing="0" shadow="1;#64000000;3;3;3" font-underline="0" box-height="205" font="Noto Sans" letter-spacing="0" font-pixel-size="150" font-italic="0" typewriter="0;2;1;0;0" alignment="2" font-weight="50" box-width="174.594" font-color="255,255,255,255">20&lt;/content>
 &lt;/item>
 &lt;item type="QGraphicsTextItem" z-index="0">
  &lt;position x="60" y="929">
   &lt;transform>1,0,0,0,1,0,0,0,1&lt;/transform>
  &lt;/position>
  &lt;content line-spacing="0" shadow="1;#64000000;3;3;3" font-underline="0" box-height="110" font="Noto Sans" letter-spacing="0" font-pixel-size="80" font-italic="0" typewriter="0;2;1;0;0" alignment="2" font-weight="50" box-width="291.234" font-color="255,255,255,255">Test no.&lt;/content>
 &lt;/item>
 &lt;startviewport rect="0,0,1920,1080"/>
 &lt;endviewport rect="0,0,1920,1080"/>
 &lt;background color="0,0,0,0"/>
&lt;/kdenlivetitle>
</property>
  <property name="kdenlive:file_hash">68e0c09835fa50648e06c2312b1943d8</property>
  <property name="kdenlive:folderid">-1</property>
  <property name="kdenlive:id">23</property>
  <property name="force_reload">0</property>
  <property name="meta.media.width">1920</property>
  <property name="meta.media.height">1080</property>
 </producer>
 <producer id="producer22" in="00:00:00.000" out="00:00:02.967">
  <property name="length">90</property>
  <property name="eof">pause</property>
  <property name="resource"/>
  <property name="progressive">1</property>
  <property name="aspect_ratio">1</property>
  <property name="seekable">1</property>
  <property name="mlt_service">kdenlivetitle</property>
  <property name="kdenlive:duration">90</property>
  <property name="kdenlive:clipname">Test no.</property>
  <property name="xmldata">&lt;kdenlivetitle duration="90" LC_NUMERIC="C" width="1920" height="1080" out="89">
 &lt;item type="QGraphicsTextItem" z-index="1">
  &lt;position x="379" y="851">
   &lt;transform>1,0,0,0,1,0,0,0,1&lt;/transform>
  &lt;/position>
  &lt;content line-spacing="0" shadow="1;#64000000;3;3;3" font-underline="0" box-height="205" font="Noto Sans" letter-spacing="0" font-pixel-size="150" font-italic="0" typewriter="0;2;1;0;0" alignment="2" font-weight="50" box-width="174.594" font-color="255,255,255,255">21&lt;/content>
 &lt;/item>
 &lt;item type="QGraphicsTextItem" z-index="0">
  &lt;position x="60" y="929">
   &lt;transform>1,0,0,0,1,0,0,0,1&lt;/transform>
  &lt;/position>
  &lt;content line-spacing="0" shadow="1;#64000000;3;3;3" font-underline="0" box-height="110" font="Noto Sans" letter-spacing="0" font-pixel-size="80" font-italic="0" typewriter="0;2;1;0;0" alignment="2" font-weight="50" box-width="291.234" font-color="255,255,255,255">Test no.&lt;/content>
 &lt;/item>
 &lt;startviewport rect="0,0,1920,1080"/>
 &lt;endviewport rect="0,0,1920,1080"/>
 &lt;background color="0,0,0,0"/>
&lt;/kdenlivetitle>
</property>
  <property name="kdenlive:folderid">-1</property>
  <property name="kdenlive:id">24</property>
  <property name="kdenlive:file_hash">88f02e730d9bcf4b2184913cdda1689f</property>
  <property name="force_reload">0</property>
  <property name="meta.media.width">1920</property>
  <property name="meta.media.height">1080</property>
 </producer>
 <producer id="producer23" in="00:00:00.000" out="00:00:02.967">
  <property name="length">90</property>
  <property name="eof">pause</property>
  <property name="resource"/>
  <property name="progressive">1</property>
  <property name="aspect_ratio">1</property>
  <property name="seekable">1</property>
  <property name="mlt_service">kdenlivetitle</property>
  <property name="kdenlive:duration">90</property>
  <property name="kdenlive:clipname">Test no.</property>
  <property name="xmldata">&lt;kdenlivetitle duration="90" LC_NUMERIC="C" width="1920" height="1080" out="89">
 &lt;item type="QGraphicsTextItem" z-index="1">
  &lt;position x="379" y="851">
   &lt;transform>1,0,0,0,1,0,0,0,1&lt;/transform>
  &lt;/position>
  &lt;content line-spacing="0" shadow="1;#64000000;3;3;3" font-underline="0" box-height="205" font="Noto Sans" letter-spacing="0" font-pixel-size="150" font-italic="0" typewriter="0;2;1;0;0" alignment="2" font-weight="50" box-width="174.594" font-color="255,255,255,255">22&lt;/content>
 &lt;/item>
 &lt;item type="QGraphicsTextItem" z-index="0">
  &lt;position x="60" y="929">
   &lt;transform>1,0,0,0,1,0,0,0,1&lt;/transform>
  &lt;/position>
  &lt;content line-spacing="0" shadow="1;#64000000;3;3;3" font-underline="0" box-height="110" font="Noto Sans" letter-spacing="0" font-pixel-size="80" font-italic="0" typewriter="0;2;1;0;0" alignment="2" font-weight="50" box-width="291.234" font-color="255,255,255,255">Test no.&lt;/content>
 &lt;/item>
 &lt;startviewport rect="0,0,1920,1080"/>
 &lt;endviewport rect="0,0,1920,1080"/>
 &lt;background color="0,0,0,0"/>
&lt;/kdenlivetitle>
</property>
  <property name="kdenlive:folderid">-1</property>
  <property name="kdenlive:id">25</property>
  <property name="kdenlive:file_hash">dfb4ea4894c3546a87eb69e9b9f6bdde</property>
  <property name="force_reload">0</property>
  <property name="meta.media.width">1920</property>
  <property name="meta.media.height">1080</property>
 </producer>
 <producer id="producer24" in="00:00:00.000" out="00:00:02.967">
  <property name="length">90</property>
  <property name="eof">pause</property>
  <property name="resource"/>
  <property name="progressive">1</property>
  <property name="aspect_ratio">1</property>
  <property name="seekable">1</property>
  <property name="mlt_service">kdenlivetitle</property>
  <property name="kdenlive:duration">90</property>
  <property name="kdenlive:clipname">Test no.</property>
  <property name="xmldata">&lt;kdenlivetitle duration="90" LC_NUMERIC="C" width="1920" height="1080" out="89">
 &lt;item type="QGraphicsTextItem" z-index="1">
  &lt;position x="379" y="851">
   &lt;transform>1,0,0,0,1,0,0,0,1&lt;/transform>
  &lt;/position>
  &lt;content line-spacing="0" shadow="1;#64000000;3;3;3" font-underline="0" box-height="205" font="Noto Sans" letter-spacing="0" font-pixel-size="150" font-italic="0" typewriter="0;2;1;0;0" alignment="2" font-weight="50" box-width="174.594" font-color="255,255,255,255">23&lt;/content>
 &lt;/item>
 &lt;item type="QGraphicsTextItem" z-index="0">
  &lt;position x="60" y="929">
   &lt;transform>1,0,0,0,1,0,0,0,1&lt;/transform>
  &lt;/position>
  &lt;content line-spacing="0" shadow="1;#64000000;3;3;3" font-underline="0" box-height="110" font="Noto Sans" letter-spacing="0" font-pixel-size="80" font-italic="0" typewriter="0;2;1;0;0" alignment="2" font-weight="50" box-width="291.234" font-color="255,255,255,255">Test no.&lt;/content>
 &lt;/item>
 &lt;startviewport rect="0,0,1920,1080"/>
 &lt;endviewport rect="0,0,1920,1080"/>
 &lt;background color="0,0,0,0"/>
&lt;/kdenlivetitle>
</property>
  <property name="kdenlive:file_hash">692e90e07935e9bb88152bab840ec727</property>
  <property name="kdenlive:folderid">-1</property>
  <property name="kdenlive:id">26</property>
  <property name="force_reload">0</property>
  <property name="meta.media.width">1920</property>
  <property name="meta.media.height">1080</property>
 </producer>
 <producer id="producer25" in="00:00:00.000" out="00:00:02.967">
  <property name="length">90</property>
  <property name="eof">pause</property>
  <property name="resource"/>
  <property name="progressive">1</property>
  <property name="aspect_ratio">1</property>
  <property name="seekable">1</property>
  <property name="mlt_service">kdenlivetitle</property>
  <property name="kdenlive:duration">90</property>
  <property name="kdenlive:clipname">Test no.</property>
  <property name="xmldata">&lt;kdenlivetitle duration="90" LC_NUMERIC="C" width="1920" height="1080" out="89">
 &lt;item type="QGraphicsTextItem" z-index="1">
  &lt;position x="379" y="851">
   &lt;transform>1,0,0,0,1,0,0,0,1&lt;/transform>
  &lt;/position>
  &lt;content line-spacing="0" shadow="1;#64000000;3;3;3" font-underline="0" box-height="205" font="Noto Sans" letter-spacing="0" font-pixel-size="150" font-italic="0" typewriter="0;2;1;0;0" alignment="2" font-weight="50" box-width="174.594" font-color="255,255,255,255">24&lt;/content>
 &lt;/item>
 &lt;item type="QGraphicsTextItem" z-index="0">
  &lt;position x="60" y="929">
   &lt;transform>1,0,0,0,1,0,0,0,1&lt;/transform>
  &lt;/position>
  &lt;content line-spacing="0" shadow="1;#64000000;3;3;3" font-underline="0" box-height="110" font="Noto Sans" letter-spacing="0" font-pixel-size="80" font-italic="0" typewriter="0;2;1;0;0" alignment="2" font-weight="50" box-width="291.234" font-color="255,255,255,255">Test no.&lt;/content>
 &lt;/item>
 &lt;startviewport rect="0,0,1920,1080"/>
 &lt;endviewport rect="0,0,1920,1080"/>
 &lt;background color="0,0,0,0"/>
&lt;/kdenlivetitle>
</property>
  <property name="kdenlive:folderid">-1</property>
  <property name="kdenlive:id">27</property>
  <property name="kdenlive:file_hash">07b01d46dd1575de34b11f37c7c45b59</property>
  <property name="force_reload">0</property>
  <property name="meta.media.width">1920</property>
  <property name="meta.media.height">1080</property>
 </producer>
 <producer id="producer26" in="00:00:00.000" out="00:00:04.600">
  <property name="length">139</property>
  <property name="eof">pause</property>
  <property name="resource"/>
  <property name="progressive">1</property>
  <property name="aspect_ratio">1</property>
  <property name="seekable">1</property>
  <property name="mlt_service">kdenlivetitle</property>
  <property name="kdenlive:duration">90</property>
  <property name="kdenlive:clipname">Test no.</property>
  <property name="xmldata">&lt;kdenlivetitle duration="90" LC_NUMERIC="C" width="1920" height="1080" out="89">
 &lt;item type="QGraphicsTextItem" z-index="1">
  &lt;position x="379" y="851">
   &lt;transform>1,0,0,0,1,0,0,0,1&lt;/transform>
  &lt;/position>
  &lt;content line-spacing="0" shadow="1;#64000000;3;3;3" font-underline="0" box-height="205" font="Noto Sans" letter-spacing="0" font-pixel-size="150" font-italic="0" typewriter="0;2;1;0;0" alignment="2" font-weight="50" box-width="174.594" font-color="255,255,255,255">25&lt;/content>
 &lt;/item>
 &lt;item type="QGraphicsTextItem" z-index="0">
  &lt;position x="60" y="929">
   &lt;transform>1,0,0,0,1,0,0,0,1&lt;/transform>
  &lt;/position>
  &lt;content line-spacing="0" shadow="1;#64000000;3;3;3" font-underline="0" box-height="110" font="Noto Sans" letter-spacing="0" font-pixel-size="80" font-italic="0" typewriter="0;2;1;0;0" alignment="2" font-weight="50" box-width="291.234" font-color="255,255,255,255">Test no.&lt;/content>
 &lt;/item>
 &lt;startviewport rect="0,0,1920,1080"/>
 &lt;endviewport rect="0,0,1920,1080"/>
 &lt;background color="0,0,0,0"/>
&lt;/kdenlivetitle>
</property>
  <property name="kdenlive:folderid">-1</property>
  <property name="kdenlive:id">28</property>
  <property name="kdenlive:file_hash">70549e7c4905d7a4c0f0bb3c628b9709</property>
  <property name="force_reload">0</property>
  <property name="meta.media.width">1920</property>
  <property name="meta.media.height">1080</property>
 </producer>
 <producer id="producer27" in="00:00:00.000" out="00:00:02.967">
  <property name="length">90</property>
  <property name="eof">pause</property>
  <property name="resource"/>
  <property name="progressive">1</property>
  <property name="aspect_ratio">1</property>
  <property name="seekable">1</property>
  <property name="mlt_service">kdenlivetitle</property>
  <property name="kdenlive:duration">90</property>
  <property name="kdenlive:clipname">Test no.</property>
  <property name="xmldata">&lt;kdenlivetitle duration="90" LC_NUMERIC="C" width="1920" height="1080" out="89">
 &lt;item type="QGraphicsTextItem" z-index="1">
  &lt;position x="379" y="851">
   &lt;transform>1,0,0,0,1,0,0,0,1&lt;/transform>
  &lt;/position>
  &lt;content line-spacing="0" shadow="1;#64000000;3;3;3" font-underline="0" box-height="205" font="Noto Sans" letter-spacing="0" font-pixel-size="150" font-italic="0" typewriter="0;2;1;0;0" alignment="2" font-weight="50" box-width="174.594" font-color="255,255,255,255">26&lt;/content>
 &lt;/item>
 &lt;item type="QGraphicsTextItem" z-index="0">
  &lt;position x="60" y="929">
   &lt;transform>1,0,0,0,1,0,0,0,1&lt;/transform>
  &lt;/position>
  &lt;content line-spacing="0" shadow="1;#64000000;3;3;3" font-underline="0" box-height="110" font="Noto Sans" letter-spacing="0" font-pixel-size="80" font-italic="0" typewriter="0;2;1;0;0" alignment="2" font-weight="50" box-width="291.234" font-color="255,255,255,255">Test no.&lt;/content>
 &lt;/item>
 &lt;startviewport rect="0,0,1920,1080"/>
 &lt;endviewport rect="0,0,1920,1080"/>
 &lt;background color="0,0,0,0"/>
&lt;/kdenlivetitle>
</property>
  <property name="kdenlive:folderid">-1</property>
  <property name="kdenlive:id">29</property>
  <property name="kdenlive:file_hash">a2e960b2ef1ae9228b5ca4fb53d7f033</property>
  <property name="force_reload">0</property>
  <property name="meta.media.width">1920</property>
  <property name="meta.media.height">1080</property>
 </producer>
 <producer id="producer28" in="00:00:00.000" out="00:00:02.967">
  <property name="length">90</property>
  <property name="eof">pause</property>
  <property name="resource"/>
  <property name="progressive">1</property>
  <property name="aspect_ratio">1</property>
  <property name="seekable">1</property>
  <property name="mlt_service">kdenlivetitle</property>
  <property name="kdenlive:duration">90</property>
  <property name="kdenlive:clipname">Test no.</property>
  <property name="xmldata">&lt;kdenlivetitle duration="90" LC_NUMERIC="C" width="1920" height="1080" out="89">
 &lt;item type="QGraphicsTextItem" z-index="1">
  &lt;position x="379" y="851">
   &lt;transform>1,0,0,0,1,0,0,0,1&lt;/transform>
  &lt;/position>
  &lt;content line-spacing="0" shadow="1;#64000000;3;3;3" font-underline="0" box-height="205" font="Noto Sans" letter-spacing="0" font-pixel-size="150" font-italic="0" typewriter="0;2;1;0;0" alignment="2" font-weight="50" box-width="174.594" font-color="255,255,255,255">27&lt;/content>
 &lt;/item>
 &lt;item type="QGraphicsTextItem" z-index="0">
  &lt;position x="60" y="929">
   &lt;transform>1,0,0,0,1,0,0,0,1&lt;/transform>
  &lt;/position>
  &lt;content line-spacing="0" shadow="1;#64000000;3;3;3" font-underline="0" box-height="110" font="Noto Sans" letter-spacing="0" font-pixel-size="80" font-italic="0" typewriter="0;2;1;0;0" alignment="2" font-weight="50" box-width="291.234" font-color="255,255,255,255">Test no.&lt;/content>
 &lt;/item>
 &lt;startviewport rect="0,0,1920,1080"/>
 &lt;endviewport rect="0,0,1920,1080"/>
 &lt;background color="0,0,0,0"/>
&lt;/kdenlivetitle>
</property>
  <property name="kdenlive:folderid">-1</property>
  <property name="kdenlive:id">30</property>
  <property name="kdenlive:file_hash">5475c5e4a530c81e64cd333865451f94</property>
  <property name="force_reload">0</property>
  <property name="meta.media.width">1920</property>
  <property name="meta.media.height">1080</property>
 </producer>
 <producer id="producer29" in="00:00:00.000" out="00:00:04.700">
  <property name="length">142</property>
  <property name="eof">pause</property>
  <property name="resource"/>
  <property name="progressive">1</property>
  <property name="aspect_ratio">1</property>
  <property name="seekable">1</property>
  <property name="mlt_service">kdenlivetitle</property>
  <property name="kdenlive:duration">90</property>
  <property name="kdenlive:clipname">Test no.</property>
  <property name="xmldata">&lt;kdenlivetitle duration="90" LC_NUMERIC="C" width="1920" height="1080" out="89">
 &lt;item type="QGraphicsTextItem" z-index="1">
  &lt;position x="379" y="851">
   &lt;transform>1,0,0,0,1,0,0,0,1&lt;/transform>
  &lt;/position>
  &lt;content line-spacing="0" shadow="1;#64000000;3;3;3" font-underline="0" box-height="205" font="Noto Sans" letter-spacing="0" font-pixel-size="150" font-italic="0" typewriter="0;2;1;0;0" alignment="2" font-weight="50" box-width="174.594" font-color="255,255,255,255">28&lt;/content>
 &lt;/item>
 &lt;item type="QGraphicsTextItem" z-index="0">
  &lt;position x="60" y="929">
   &lt;transform>1,0,0,0,1,0,0,0,1&lt;/transform>
  &lt;/position>
  &lt;content line-spacing="0" shadow="1;#64000000;3;3;3" font-underline="0" box-height="110" font="Noto Sans" letter-spacing="0" font-pixel-size="80" font-italic="0" typewriter="0;2;1;0;0" alignment="2" font-weight="50" box-width="291.234" font-color="255,255,255,255">Test no.&lt;/content>
 &lt;/item>
 &lt;startviewport rect="0,0,1920,1080"/>
 &lt;endviewport rect="0,0,1920,1080"/>
 &lt;background color="0,0,0,0"/>
&lt;/kdenlivetitle>
</property>
  <property name="kdenlive:folderid">-1</property>
  <property name="kdenlive:id">31</property>
  <property name="kdenlive:file_hash">c06563be683b611571028c795d46f416</property>
  <property name="force_reload">0</property>
  <property name="meta.media.width">1920</property>
  <property name="meta.media.height">1080</property>
 </producer>
 <producer id="producer30" in="00:00:00.000" out="00:00:16.433">
  <property name="length">494</property>
  <property name="eof">pause</property>
  <property name="resource"/>
  <property name="progressive">1</property>
  <property name="aspect_ratio">1</property>
  <property name="seekable">1</property>
  <property name="mlt_service">kdenlivetitle</property>
  <property name="kdenlive:duration">90</property>
  <property name="kdenlive:clipname">Test no.</property>
  <property name="xmldata">&lt;kdenlivetitle duration="90" LC_NUMERIC="C" width="1920" height="1080" out="89">
 &lt;item type="QGraphicsTextItem" z-index="1">
  &lt;position x="379" y="851">
   &lt;transform>1,0,0,0,1,0,0,0,1&lt;/transform>
  &lt;/position>
  &lt;content line-spacing="0" shadow="1;#64000000;3;3;3" font-underline="0" box-height="205" font="Noto Sans" letter-spacing="0" font-pixel-size="150" font-italic="0" typewriter="0;2;1;0;0" alignment="2" font-weight="50" box-width="394.484" font-color="255,255,255,255">29-30&lt;/content>
 &lt;/item>
 &lt;item type="QGraphicsTextItem" z-index="0">
  &lt;position x="60" y="929">
   &lt;transform>1,0,0,0,1,0,0,0,1&lt;/transform>
  &lt;/position>
  &lt;content line-spacing="0" shadow="1;#64000000;3;3;3" font-underline="0" box-height="110" font="Noto Sans" letter-spacing="0" font-pixel-size="80" font-italic="0" typewriter="0;2;1;0;0" alignment="2" font-weight="50" box-width="291.234" font-color="255,255,255,255">Test no.&lt;/content>
 &lt;/item>
 &lt;startviewport rect="0,0,1920,1080"/>
 &lt;endviewport rect="0,0,1920,1080"/>
 &lt;background color="0,0,0,0"/>
&lt;/kdenlivetitle>
</property>
  <property name="kdenlive:folderid">-1</property>
  <property name="kdenlive:id">32</property>
  <property name="kdenlive:file_hash">e2118dd6b0933ea8e23aee3293c3903c</property>
  <property name="force_reload">0</property>
  <property name="meta.media.width">1920</property>
  <property name="meta.media.height">1080</property>
 </producer>
 <producer id="producer31" in="00:00:00.000" out="00:00:02.967">
  <property name="length">90</property>
  <property name="eof">pause</property>
  <property name="resource"/>
  <property name="progressive">1</property>
  <property name="aspect_ratio">1</property>
  <property name="seekable">1</property>
  <property name="mlt_service">kdenlivetitle</property>
  <property name="kdenlive:duration">90</property>
  <property name="kdenlive:clipname">Test no.</property>
  <property name="xmldata">&lt;kdenlivetitle duration="90" LC_NUMERIC="C" width="1920" height="1080" out="89">
 &lt;item type="QGraphicsTextItem" z-index="1">
  &lt;position x="379" y="851">
   &lt;transform>1,0,0,0,1,0,0,0,1&lt;/transform>
  &lt;/position>
  &lt;content line-spacing="0" shadow="1;#64000000;3;3;3" font-underline="0" box-height="205" font="Noto Sans" letter-spacing="0" font-pixel-size="150" font-italic="0" typewriter="0;2;1;0;0" alignment="2" font-weight="50" box-width="174.594" font-color="255,255,255,255">30&lt;/content>
 &lt;/item>
 &lt;item type="QGraphicsTextItem" z-index="0">
  &lt;position x="60" y="929">
   &lt;transform>1,0,0,0,1,0,0,0,1&lt;/transform>
  &lt;/position>
  &lt;content line-spacing="0" shadow="1;#64000000;3;3;3" font-underline="0" box-height="110" font="Noto Sans" letter-spacing="0" font-pixel-size="80" font-italic="0" typewriter="0;2;1;0;0" alignment="2" font-weight="50" box-width="291.234" font-color="255,255,255,255">Test no.&lt;/content>
 &lt;/item>
 &lt;startviewport rect="0,0,1920,1080"/>
 &lt;endviewport rect="0,0,1920,1080"/>
 &lt;background color="0,0,0,0"/>
&lt;/kdenlivetitle>
</property>
  <property name="kdenlive:folderid">-1</property>
  <property name="kdenlive:id">33</property>
  <property name="kdenlive:file_hash">07c7570bb79f27194447ff9721149c76</property>
  <property name="force_reload">0</property>
  <property name="meta.media.width">1920</property>
  <property name="meta.media.height">1080</property>
 </producer>
 <producer id="producer32" in="00:00:00.000" out="00:00:02.967">
  <property name="length">90</property>
  <property name="eof">pause</property>
  <property name="resource"/>
  <property name="progressive">1</property>
  <property name="aspect_ratio">1</property>
  <property name="seekable">1</property>
  <property name="mlt_service">kdenlivetitle</property>
  <property name="kdenlive:duration">90</property>
  <property name="kdenlive:clipname">Test no.</property>
  <property name="xmldata">&lt;kdenlivetitle duration="90" LC_NUMERIC="C" width="1920" height="1080" out="89">
 &lt;item type="QGraphicsTextItem" z-index="1">
  &lt;position x="379" y="851">
   &lt;transform>1,0,0,0,1,0,0,0,1&lt;/transform>
  &lt;/position>
  &lt;content line-spacing="0" shadow="1;#64000000;3;3;3" font-underline="0" box-height="205" font="Noto Sans" letter-spacing="0" font-pixel-size="150" font-italic="0" typewriter="0;2;1;0;0" alignment="2" font-weight="50" box-width="174.594" font-color="255,255,255,255">31&lt;/content>
 &lt;/item>
 &lt;item type="QGraphicsTextItem" z-index="0">
  &lt;position x="60" y="929">
   &lt;transform>1,0,0,0,1,0,0,0,1&lt;/transform>
  &lt;/position>
  &lt;content line-spacing="0" shadow="1;#64000000;3;3;3" font-underline="0" box-height="110" font="Noto Sans" letter-spacing="0" font-pixel-size="80" font-italic="0" typewriter="0;2;1;0;0" alignment="2" font-weight="50" box-width="291.234" font-color="255,255,255,255">Test no.&lt;/content>
 &lt;/item>
 &lt;startviewport rect="0,0,1920,1080"/>
 &lt;endviewport rect="0,0,1920,1080"/>
 &lt;background color="0,0,0,0"/>
&lt;/kdenlivetitle>
</property>
  <property name="kdenlive:folderid">-1</property>
  <property name="kdenlive:id">34</property>
  <property name="kdenlive:file_hash">867fe4d3b295caf3b1665f265a5b5b52</property>
  <property name="force_reload">0</property>
  <property name="meta.media.width">1920</property>
  <property name="meta.media.height">1080</property>
 </producer>
 <producer id="producer33" in="00:00:00.000" out="00:00:02.967">
  <property name="length">90</property>
  <property name="eof">pause</property>
  <property name="resource"/>
  <property name="progressive">1</property>
  <property name="aspect_ratio">1</property>
  <property name="seekable">1</property>
  <property name="mlt_service">kdenlivetitle</property>
  <property name="kdenlive:duration">90</property>
  <property name="kdenlive:clipname">Test no.</property>
  <property name="xmldata">&lt;kdenlivetitle duration="90" LC_NUMERIC="C" width="1920" height="1080" out="89">
 &lt;item type="QGraphicsTextItem" z-index="1">
  &lt;position x="379" y="851">
   &lt;transform>1,0,0,0,1,0,0,0,1&lt;/transform>
  &lt;/position>
  &lt;content line-spacing="0" shadow="1;#64000000;3;3;3" font-underline="0" box-height="205" font="Noto Sans" letter-spacing="0" font-pixel-size="150" font-italic="0" typewriter="0;2;1;0;0" alignment="2" font-weight="50" box-width="174.594" font-color="255,255,255,255">32&lt;/content>
 &lt;/item>
 &lt;item type="QGraphicsTextItem" z-index="0">
  &lt;position x="60" y="929">
   &lt;transform>1,0,0,0,1,0,0,0,1&lt;/transform>
  &lt;/position>
  &lt;content line-spacing="0" shadow="1;#64000000;3;3;3" font-underline="0" box-height="110" font="Noto Sans" letter-spacing="0" font-pixel-size="80" font-italic="0" typewriter="0;2;1;0;0" alignment="2" font-weight="50" box-width="291.234" font-color="255,255,255,255">Test no.&lt;/content>
 &lt;/item>
 &lt;startviewport rect="0,0,1920,1080"/>
 &lt;endviewport rect="0,0,1920,1080"/>
 &lt;background color="0,0,0,0"/>
&lt;/kdenlivetitle>
</property>
  <property name="kdenlive:file_hash">f08b570540f97aea5f0ba242cb275f0c</property>
  <property name="kdenlive:folderid">-1</property>
  <property name="kdenlive:id">35</property>
  <property name="force_reload">0</property>
  <property name="meta.media.width">1920</property>
  <property name="meta.media.height">1080</property>
 </producer>
 <producer id="producer34" in="00:00:00.000" out="00:00:02.967">
  <property name="length">90</property>
  <property name="eof">pause</property>
  <property name="resource"/>
  <property name="progressive">1</property>
  <property name="aspect_ratio">1</property>
  <property name="seekable">1</property>
  <property name="mlt_service">kdenlivetitle</property>
  <property name="kdenlive:duration">90</property>
  <property name="kdenlive:clipname">Test no.</property>
  <property name="xmldata">&lt;kdenlivetitle duration="90" LC_NUMERIC="C" width="1920" height="1080" out="89">
 &lt;item type="QGraphicsTextItem" z-index="1">
  &lt;position x="379" y="851">
   &lt;transform>1,0,0,0,1,0,0,0,1&lt;/transform>
  &lt;/position>
  &lt;content line-spacing="0" shadow="1;#64000000;3;3;3" font-underline="0" box-height="205" font="Noto Sans" letter-spacing="0" font-pixel-size="150" font-italic="0" typewriter="0;2;1;0;0" alignment="2" font-weight="50" box-width="174.594" font-color="255,255,255,255">33&lt;/content>
 &lt;/item>
 &lt;item type="QGraphicsTextItem" z-index="0">
  &lt;position x="60" y="929">
   &lt;transform>1,0,0,0,1,0,0,0,1&lt;/transform>
  &lt;/position>
  &lt;content line-spacing="0" shadow="1;#64000000;3;3;3" font-underline="0" box-height="110" font="Noto Sans" letter-spacing="0" font-pixel-size="80" font-italic="0" typewriter="0;2;1;0;0" alignment="2" font-weight="50" box-width="291.234" font-color="255,255,255,255">Test no.&lt;/content>
 &lt;/item>
 &lt;startviewport rect="0,0,1920,1080"/>
 &lt;endviewport rect="0,0,1920,1080"/>
 &lt;background color="0,0,0,0"/>
&lt;/kdenlivetitle>
</property>
  <property name="kdenlive:folderid">-1</property>
  <property name="kdenlive:id">36</property>
  <property name="kdenlive:file_hash">c6775f2e3b8d0c857f50bdd2ee1f8737</property>
  <property name="force_reload">0</property>
  <property name="meta.media.width">1920</property>
  <property name="meta.media.height">1080</property>
 </producer>
 <producer id="producer35" in="00:00:00.000" out="00:00:22.700">
  <property name="length">682</property>
  <property name="eof">pause</property>
  <property name="resource"/>
  <property name="progressive">1</property>
  <property name="aspect_ratio">1</property>
  <property name="seekable">1</property>
  <property name="mlt_service">kdenlivetitle</property>
  <property name="kdenlive:duration">90</property>
  <property name="kdenlive:clipname">Test no.</property>
  <property name="xmldata">&lt;kdenlivetitle duration="90" LC_NUMERIC="C" width="1920" height="1080" out="89">
 &lt;item type="QGraphicsTextItem" z-index="1">
  &lt;position x="379" y="851">
   &lt;transform>1,0,0,0,1,0,0,0,1&lt;/transform>
  &lt;/position>
  &lt;content line-spacing="0" shadow="1;#64000000;3;3;3" font-underline="0" box-height="205" font="Noto Sans" letter-spacing="0" font-pixel-size="150" font-italic="0" typewriter="0;2;1;0;0" alignment="2" font-weight="50" box-width="394.484" font-color="255,255,255,255">33-34&lt;/content>
 &lt;/item>
 &lt;item type="QGraphicsTextItem" z-index="0">
  &lt;position x="60" y="929">
   &lt;transform>1,0,0,0,1,0,0,0,1&lt;/transform>
  &lt;/position>
  &lt;content line-spacing="0" shadow="1;#64000000;3;3;3" font-underline="0" box-height="110" font="Noto Sans" letter-spacing="0" font-pixel-size="80" font-italic="0" typewriter="0;2;1;0;0" alignment="2" font-weight="50" box-width="291.234" font-color="255,255,255,255">Test no.&lt;/content>
 &lt;/item>
 &lt;startviewport rect="0,0,1920,1080"/>
 &lt;endviewport rect="0,0,1920,1080"/>
 &lt;background color="0,0,0,0"/>
&lt;/kdenlivetitle>
</property>
  <property name="kdenlive:folderid">-1</property>
  <property name="kdenlive:id">37</property>
  <property name="kdenlive:file_hash">acb5a8e932a0b74768c579b299497053</property>
  <property name="force_reload">0</property>
  <property name="meta.media.width">1920</property>
  <property name="meta.media.height">1080</property>
 </producer>
 <producer id="producer36" in="00:00:00.000" out="00:00:11.067">
  <property name="length">333</property>
  <property name="eof">pause</property>
  <property name="resource"/>
  <property name="progressive">1</property>
  <property name="aspect_ratio">1</property>
  <property name="seekable">1</property>
  <property name="mlt_service">kdenlivetitle</property>
  <property name="kdenlive:duration">90</property>
  <property name="kdenlive:clipname">Test no.</property>
  <property name="xmldata">&lt;kdenlivetitle duration="90" LC_NUMERIC="C" width="1920" height="1080" out="89">
 &lt;item type="QGraphicsTextItem" z-index="1">
  &lt;position x="379" y="851">
   &lt;transform>1,0,0,0,1,0,0,0,1&lt;/transform>
  &lt;/position>
  &lt;content line-spacing="0" shadow="1;#64000000;3;3;3" font-underline="0" box-height="205" font="Noto Sans" letter-spacing="0" font-pixel-size="150" font-italic="0" typewriter="0;2;1;0;0" alignment="2" font-weight="50" box-width="394.484" font-color="255,255,255,255">35-36&lt;/content>
 &lt;/item>
 &lt;item type="QGraphicsTextItem" z-index="0">
  &lt;position x="60" y="929">
   &lt;transform>1,0,0,0,1,0,0,0,1&lt;/transform>
  &lt;/position>
  &lt;content line-spacing="0" shadow="1;#64000000;3;3;3" font-underline="0" box-height="110" font="Noto Sans" letter-spacing="0" font-pixel-size="80" font-italic="0" typewriter="0;2;1;0;0" alignment="2" font-weight="50" box-width="291.234" font-color="255,255,255,255">Test no.&lt;/content>
 &lt;/item>
 &lt;startviewport rect="0,0,1920,1080"/>
 &lt;endviewport rect="0,0,1920,1080"/>
 &lt;background color="0,0,0,0"/>
&lt;/kdenlivetitle>
</property>
  <property name="kdenlive:folderid">-1</property>
  <property name="kdenlive:id">38</property>
  <property name="kdenlive:file_hash">eddcabcd84e1d2a9ba29e7e074332c0c</property>
  <property name="force_reload">0</property>
  <property name="meta.media.width">1920</property>
  <property name="meta.media.height">1080</property>
 </producer>
 <producer id="producer37" in="00:00:00.000" out="00:00:02.967">
  <property name="length">90</property>
  <property name="eof">pause</property>
  <property name="resource"/>
  <property name="progressive">1</property>
  <property name="aspect_ratio">1</property>
  <property name="seekable">1</property>
  <property name="mlt_service">kdenlivetitle</property>
  <property name="kdenlive:duration">90</property>
  <property name="kdenlive:clipname">Test no.</property>
  <property name="xmldata">&lt;kdenlivetitle duration="90" LC_NUMERIC="C" width="1920" height="1080" out="89">
 &lt;item type="QGraphicsTextItem" z-index="1">
  &lt;position x="379" y="851">
   &lt;transform>1,0,0,0,1,0,0,0,1&lt;/transform>
  &lt;/position>
  &lt;content line-spacing="0" shadow="1;#64000000;3;3;3" font-underline="0" box-height="205" font="Noto Sans" letter-spacing="0" font-pixel-size="150" font-italic="0" typewriter="0;2;1;0;0" alignment="2" font-weight="50" box-width="174.594" font-color="255,255,255,255">36&lt;/content>
 &lt;/item>
 &lt;item type="QGraphicsTextItem" z-index="0">
  &lt;position x="60" y="929">
   &lt;transform>1,0,0,0,1,0,0,0,1&lt;/transform>
  &lt;/position>
  &lt;content line-spacing="0" shadow="1;#64000000;3;3;3" font-underline="0" box-height="110" font="Noto Sans" letter-spacing="0" font-pixel-size="80" font-italic="0" typewriter="0;2;1;0;0" alignment="2" font-weight="50" box-width="291.234" font-color="255,255,255,255">Test no.&lt;/content>
 &lt;/item>
 &lt;startviewport rect="0,0,1920,1080"/>
 &lt;endviewport rect="0,0,1920,1080"/>
 &lt;background color="0,0,0,0"/>
&lt;/kdenlivetitle>
</property>
  <property name="kdenlive:folderid">-1</property>
  <property name="kdenlive:id">39</property>
  <property name="kdenlive:file_hash">e24f198a6b152521a5049c9d8c1a08c3</property>
  <property name="force_reload">0</property>
  <property name="meta.media.width">1920</property>
  <property name="meta.media.height">1080</property>
 </producer>
 <producer id="producer38" in="00:00:00.000" out="00:00:09.267">
  <property name="length">279</property>
  <property name="eof">pause</property>
  <property name="resource"/>
  <property name="progressive">1</property>
  <property name="aspect_ratio">1</property>
  <property name="seekable">1</property>
  <property name="mlt_service">kdenlivetitle</property>
  <property name="kdenlive:duration">90</property>
  <property name="kdenlive:clipname">Test no.</property>
  <property name="xmldata">&lt;kdenlivetitle duration="90" LC_NUMERIC="C" width="1920" height="1080" out="89">
 &lt;item type="QGraphicsTextItem" z-index="1">
  &lt;position x="379" y="851">
   &lt;transform>1,0,0,0,1,0,0,0,1&lt;/transform>
  &lt;/position>
  &lt;content line-spacing="0" shadow="1;#64000000;3;3;3" font-underline="0" box-height="205" font="Noto Sans" letter-spacing="0" font-pixel-size="150" font-italic="0" typewriter="0;2;1;0;0" alignment="2" font-weight="50" box-width="174.594" font-color="255,255,255,255">37&lt;/content>
 &lt;/item>
 &lt;item type="QGraphicsTextItem" z-index="0">
  &lt;position x="60" y="929">
   &lt;transform>1,0,0,0,1,0,0,0,1&lt;/transform>
  &lt;/position>
  &lt;content line-spacing="0" shadow="1;#64000000;3;3;3" font-underline="0" box-height="110" font="Noto Sans" letter-spacing="0" font-pixel-size="80" font-italic="0" typewriter="0;2;1;0;0" alignment="2" font-weight="50" box-width="291.234" font-color="255,255,255,255">Test no.&lt;/content>
 &lt;/item>
 &lt;startviewport rect="0,0,1920,1080"/>
 &lt;endviewport rect="0,0,1920,1080"/>
 &lt;background color="0,0,0,0"/>
&lt;/kdenlivetitle>
</property>
  <property name="kdenlive:folderid">-1</property>
  <property name="kdenlive:id">40</property>
  <property name="kdenlive:file_hash">f966a4380dcb3bd1a5ed24a8a52cdcd8</property>
  <property name="force_reload">0</property>
  <property name="meta.media.width">1920</property>
  <property name="meta.media.height">1080</property>
 </producer>
 <producer id="producer39" in="00:00:00.000" out="00:00:02.967">
  <property name="length">90</property>
  <property name="eof">pause</property>
  <property name="resource"/>
  <property name="progressive">1</property>
  <property name="aspect_ratio">1</property>
  <property name="seekable">1</property>
  <property name="mlt_service">kdenlivetitle</property>
  <property name="kdenlive:duration">90</property>
  <property name="kdenlive:clipname">Test no.</property>
  <property name="xmldata">&lt;kdenlivetitle duration="90" LC_NUMERIC="C" width="1920" height="1080" out="89">
 &lt;item type="QGraphicsTextItem" z-index="1">
  &lt;position x="379" y="851">
   &lt;transform>1,0,0,0,1,0,0,0,1&lt;/transform>
  &lt;/position>
  &lt;content line-spacing="0" shadow="1;#64000000;3;3;3" font-underline="0" box-height="205" font="Noto Sans" letter-spacing="0" font-pixel-size="150" font-italic="0" typewriter="0;2;1;0;0" alignment="2" font-weight="50" box-width="174.594" font-color="255,255,255,255">38&lt;/content>
 &lt;/item>
 &lt;item type="QGraphicsTextItem" z-index="0">
  &lt;position x="60" y="929">
   &lt;transform>1,0,0,0,1,0,0,0,1&lt;/transform>
  &lt;/position>
  &lt;content line-spacing="0" shadow="1;#64000000;3;3;3" font-underline="0" box-height="110" font="Noto Sans" letter-spacing="0" font-pixel-size="80" font-italic="0" typewriter="0;2;1;0;0" alignment="2" font-weight="50" box-width="291.234" font-color="255,255,255,255">Test no.&lt;/content>
 &lt;/item>
 &lt;startviewport rect="0,0,1920,1080"/>
 &lt;endviewport rect="0,0,1920,1080"/>
 &lt;background color="0,0,0,0"/>
&lt;/kdenlivetitle>
</property>
  <property name="kdenlive:folderid">-1</property>
  <property name="kdenlive:id">41</property>
  <property name="kdenlive:file_hash">a66e8d287d79e1eac22978ed17e7f802</property>
  <property name="force_reload">0</property>
  <property name="meta.media.width">1920</property>
  <property name="meta.media.height">1080</property>
 </producer>
 <producer id="producer40" in="00:00:00.000" out="00:00:02.967">
  <property name="length">90</property>
  <property name="eof">pause</property>
  <property name="resource"/>
  <property name="progressive">1</property>
  <property name="aspect_ratio">1</property>
  <property name="seekable">1</property>
  <property name="mlt_service">kdenlivetitle</property>
  <property name="kdenlive:duration">90</property>
  <property name="kdenlive:clipname">Test no.</property>
  <property name="xmldata">&lt;kdenlivetitle duration="90" LC_NUMERIC="C" width="1920" height="1080" out="89">
 &lt;item type="QGraphicsTextItem" z-index="1">
  &lt;position x="379" y="851">
   &lt;transform>1,0,0,0,1,0,0,0,1&lt;/transform>
  &lt;/position>
  &lt;content line-spacing="0" shadow="1;#64000000;3;3;3" font-underline="0" box-height="205" font="Noto Sans" letter-spacing="0" font-pixel-size="150" font-italic="0" typewriter="0;2;1;0;0" alignment="2" font-weight="50" box-width="174.594" font-color="255,255,255,255">39&lt;/content>
 &lt;/item>
 &lt;item type="QGraphicsTextItem" z-index="0">
  &lt;position x="60" y="929">
   &lt;transform>1,0,0,0,1,0,0,0,1&lt;/transform>
  &lt;/position>
  &lt;content line-spacing="0" shadow="1;#64000000;3;3;3" font-underline="0" box-height="110" font="Noto Sans" letter-spacing="0" font-pixel-size="80" font-italic="0" typewriter="0;2;1;0;0" alignment="2" font-weight="50" box-width="291.234" font-color="255,255,255,255">Test no.&lt;/content>
 &lt;/item>
 &lt;startviewport rect="0,0,1920,1080"/>
 &lt;endviewport rect="0,0,1920,1080"/>
 &lt;background color="0,0,0,0"/>
&lt;/kdenlivetitle>
</property>
  <property name="kdenlive:folderid">-1</property>
  <property name="kdenlive:id">42</property>
  <property name="kdenlive:file_hash">06ad7f42634c9655e76b4f4de3caf2ab</property>
  <property name="force_reload">0</property>
  <property name="meta.media.width">1920</property>
  <property name="meta.media.height">1080</property>
 </producer>
 <producer id="producer41" in="00:00:00.000" out="00:00:02.967">
  <property name="length">90</property>
  <property name="eof">pause</property>
  <property name="resource"/>
  <property name="progressive">1</property>
  <property name="aspect_ratio">1</property>
  <property name="seekable">1</property>
  <property name="mlt_service">kdenlivetitle</property>
  <property name="kdenlive:duration">90</property>
  <property name="kdenlive:clipname">Test no.</property>
  <property name="xmldata">&lt;kdenlivetitle duration="90" LC_NUMERIC="C" width="1920" height="1080" out="89">
 &lt;item type="QGraphicsTextItem" z-index="1">
  &lt;position x="379" y="851">
   &lt;transform>1,0,0,0,1,0,0,0,1&lt;/transform>
  &lt;/position>
  &lt;content line-spacing="0" shadow="1;#64000000;3;3;3" font-underline="0" box-height="205" font="Noto Sans" letter-spacing="0" font-pixel-size="150" font-italic="0" typewriter="0;2;1;0;0" alignment="2" font-weight="50" box-width="174.594" font-color="255,255,255,255">40&lt;/content>
 &lt;/item>
 &lt;item type="QGraphicsTextItem" z-index="0">
  &lt;position x="60" y="929">
   &lt;transform>1,0,0,0,1,0,0,0,1&lt;/transform>
  &lt;/position>
  &lt;content line-spacing="0" shadow="1;#64000000;3;3;3" font-underline="0" box-height="110" font="Noto Sans" letter-spacing="0" font-pixel-size="80" font-italic="0" typewriter="0;2;1;0;0" alignment="2" font-weight="50" box-width="291.234" font-color="255,255,255,255">Test no.&lt;/content>
 &lt;/item>
 &lt;startviewport rect="0,0,1920,1080"/>
 &lt;endviewport rect="0,0,1920,1080"/>
 &lt;background color="0,0,0,0"/>
&lt;/kdenlivetitle>
</property>
  <property name="kdenlive:folderid">-1</property>
  <property name="kdenlive:id">43</property>
  <property name="kdenlive:file_hash">8e7acb22146e3e01e3041a54277469e5</property>
  <property name="force_reload">0</property>
  <property name="meta.media.width">1920</property>
  <property name="meta.media.height">1080</property>
 </producer>
 <producer id="producer42" in="00:00:00.000" out="00:02:27.167">
  <property name="length">4416</property>
  <property name="eof">pause</property>
  <property name="resource"/>
  <property name="progressive">1</property>
  <property name="aspect_ratio">1</property>
  <property name="seekable">1</property>
  <property name="mlt_service">kdenlivetitle</property>
  <property name="kdenlive:duration">90</property>
  <property name="kdenlive:clipname">Test no.</property>
  <property name="xmldata">&lt;kdenlivetitle duration="90" LC_NUMERIC="C" width="1920" height="1080" out="89">
 &lt;item type="QGraphicsTextItem" z-index="1">
  &lt;position x="379" y="851">
   &lt;transform>1,0,0,0,1,0,0,0,1&lt;/transform>
  &lt;/position>
  &lt;content line-spacing="0" shadow="1;#64000000;3;3;3" font-underline="0" box-height="205" font="Noto Sans" letter-spacing="0" font-pixel-size="150" font-italic="0" typewriter="0;2;1;0;0" alignment="2" font-weight="50" box-width="174.594" font-color="255,255,255,255">41&lt;/content>
 &lt;/item>
 &lt;item type="QGraphicsTextItem" z-index="0">
  &lt;position x="60" y="929">
   &lt;transform>1,0,0,0,1,0,0,0,1&lt;/transform>
  &lt;/position>
  &lt;content line-spacing="0" shadow="1;#64000000;3;3;3" font-underline="0" box-height="110" font="Noto Sans" letter-spacing="0" font-pixel-size="80" font-italic="0" typewriter="0;2;1;0;0" alignment="2" font-weight="50" box-width="291.234" font-color="255,255,255,255">Test no.&lt;/content>
 &lt;/item>
 &lt;startviewport rect="0,0,1920,1080"/>
 &lt;endviewport rect="0,0,1920,1080"/>
 &lt;background color="0,0,0,0"/>
&lt;/kdenlivetitle>
</property>
  <property name="kdenlive:folderid">-1</property>
  <property name="kdenlive:id">44</property>
  <property name="kdenlive:file_hash">d5b5b91647fff2a48d1f5af0488611ef</property>
  <property name="force_reload">0</property>
  <property name="meta.media.width">1920</property>
  <property name="meta.media.height">1080</property>
 </producer>
 <producer id="producer43" in="00:00:00.000" out="00:00:02.967">
  <property name="length">90</property>
  <property name="eof">pause</property>
  <property name="resource"/>
  <property name="progressive">1</property>
  <property name="aspect_ratio">1</property>
  <property name="seekable">1</property>
  <property name="mlt_service">kdenlivetitle</property>
  <property name="kdenlive:duration">90</property>
  <property name="kdenlive:clipname">Test no.</property>
  <property name="xmldata">&lt;kdenlivetitle duration="90" LC_NUMERIC="C" width="1920" height="1080" out="89">
 &lt;item type="QGraphicsTextItem" z-index="1">
  &lt;position x="379" y="851">
   &lt;transform>1,0,0,0,1,0,0,0,1&lt;/transform>
  &lt;/position>
  &lt;content line-spacing="0" shadow="1;#64000000;3;3;3" font-underline="0" box-height="205" font="Noto Sans" letter-spacing="0" font-pixel-size="150" font-italic="0" typewriter="0;2;1;0;0" alignment="2" font-weight="50" box-width="174.594" font-color="255,255,255,255">42&lt;/content>
 &lt;/item>
 &lt;item type="QGraphicsTextItem" z-index="0">
  &lt;position x="60" y="929">
   &lt;transform>1,0,0,0,1,0,0,0,1&lt;/transform>
  &lt;/position>
  &lt;content line-spacing="0" shadow="1;#64000000;3;3;3" font-underline="0" box-height="110" font="Noto Sans" letter-spacing="0" font-pixel-size="80" font-italic="0" typewriter="0;2;1;0;0" alignment="2" font-weight="50" box-width="291.234" font-color="255,255,255,255">Test no.&lt;/content>
 &lt;/item>
 &lt;startviewport rect="0,0,1920,1080"/>
 &lt;endviewport rect="0,0,1920,1080"/>
 &lt;background color="0,0,0,0"/>
&lt;/kdenlivetitle>
</property>
  <property name="kdenlive:folderid">-1</property>
  <property name="kdenlive:id">45</property>
  <property name="kdenlive:file_hash">9132978dab8b377648b8d273916cd61a</property>
  <property name="force_reload">0</property>
  <property name="meta.media.width">1920</property>
  <property name="meta.media.height">1080</property>
 </producer>
 <producer id="producer44" in="00:00:00.000" out="00:00:05.133">
  <property name="length">155</property>
  <property name="eof">pause</property>
  <property name="resource"/>
  <property name="progressive">1</property>
  <property name="aspect_ratio">1</property>
  <property name="seekable">1</property>
  <property name="mlt_service">kdenlivetitle</property>
  <property name="kdenlive:duration">90</property>
  <property name="kdenlive:clipname">Test no.</property>
  <property name="xmldata">&lt;kdenlivetitle duration="90" LC_NUMERIC="C" width="1920" height="1080" out="89">
 &lt;item type="QGraphicsTextItem" z-index="1">
  &lt;position x="379" y="851">
   &lt;transform>1,0,0,0,1,0,0,0,1&lt;/transform>
  &lt;/position>
  &lt;content line-spacing="0" shadow="1;#64000000;3;3;3" font-underline="0" box-height="205" font="Noto Sans" letter-spacing="0" font-pixel-size="150" font-italic="0" typewriter="0;2;1;0;0" alignment="2" font-weight="50" box-width="174.594" font-color="255,255,255,255">43&lt;/content>
 &lt;/item>
 &lt;item type="QGraphicsTextItem" z-index="0">
  &lt;position x="60" y="929">
   &lt;transform>1,0,0,0,1,0,0,0,1&lt;/transform>
  &lt;/position>
  &lt;content line-spacing="0" shadow="1;#64000000;3;3;3" font-underline="0" box-height="110" font="Noto Sans" letter-spacing="0" font-pixel-size="80" font-italic="0" typewriter="0;2;1;0;0" alignment="2" font-weight="50" box-width="291.234" font-color="255,255,255,255">Test no.&lt;/content>
 &lt;/item>
 &lt;startviewport rect="0,0,1920,1080"/>
 &lt;endviewport rect="0,0,1920,1080"/>
 &lt;background color="0,0,0,0"/>
&lt;/kdenlivetitle>
</property>
  <property name="kdenlive:folderid">-1</property>
  <property name="kdenlive:id">46</property>
  <property name="kdenlive:file_hash">2ec63364d282812bdb0a275fd8bc85c1</property>
  <property name="force_reload">0</property>
  <property name="meta.media.width">1920</property>
  <property name="meta.media.height">1080</property>
 </producer>
 <producer id="producer45" in="00:00:00.000" out="00:00:10.700">
  <property name="length">322</property>
  <property name="eof">pause</property>
  <property name="resource"/>
  <property name="progressive">1</property>
  <property name="aspect_ratio">1</property>
  <property name="seekable">1</property>
  <property name="mlt_service">kdenlivetitle</property>
  <property name="kdenlive:duration">90</property>
  <property name="kdenlive:clipname">Test no.</property>
  <property name="xmldata">&lt;kdenlivetitle duration="90" LC_NUMERIC="C" width="1920" height="1080" out="89">
 &lt;item type="QGraphicsTextItem" z-index="1">
  &lt;position x="379" y="851">
   &lt;transform>1,0,0,0,1,0,0,0,1&lt;/transform>
  &lt;/position>
  &lt;content line-spacing="0" shadow="1;#64000000;3;3;3" font-underline="0" box-height="205" font="Noto Sans" letter-spacing="0" font-pixel-size="150" font-italic="0" typewriter="0;2;1;0;0" alignment="2" font-weight="50" box-width="174.594" font-color="255,255,255,255">44&lt;/content>
 &lt;/item>
 &lt;item type="QGraphicsTextItem" z-index="0">
  &lt;position x="60" y="929">
   &lt;transform>1,0,0,0,1,0,0,0,1&lt;/transform>
  &lt;/position>
  &lt;content line-spacing="0" shadow="1;#64000000;3;3;3" font-underline="0" box-height="110" font="Noto Sans" letter-spacing="0" font-pixel-size="80" font-italic="0" typewriter="0;2;1;0;0" alignment="2" font-weight="50" box-width="291.234" font-color="255,255,255,255">Test no.&lt;/content>
 &lt;/item>
 &lt;startviewport rect="0,0,1920,1080"/>
 &lt;endviewport rect="0,0,1920,1080"/>
 &lt;background color="0,0,0,0"/>
&lt;/kdenlivetitle>
</property>
  <property name="kdenlive:folderid">-1</property>
  <property name="kdenlive:id">47</property>
  <property name="kdenlive:file_hash">fefcdfe0cc264b42d012cbe5d035f705</property>
  <property name="force_reload">0</property>
  <property name="meta.media.width">1920</property>
  <property name="meta.media.height">1080</property>
 </producer>
 <producer id="producer46" in="00:00:00.000" out="00:00:04.533">
  <property name="length">137</property>
  <property name="eof">pause</property>
  <property name="resource"/>
  <property name="progressive">1</property>
  <property name="aspect_ratio">1</property>
  <property name="seekable">1</property>
  <property name="mlt_service">kdenlivetitle</property>
  <property name="kdenlive:duration">90</property>
  <property name="kdenlive:clipname">Test no.</property>
  <property name="xmldata">&lt;kdenlivetitle duration="90" LC_NUMERIC="C" width="1920" height="1080" out="89">
 &lt;item type="QGraphicsTextItem" z-index="1">
  &lt;position x="379" y="851">
   &lt;transform>1,0,0,0,1,0,0,0,1&lt;/transform>
  &lt;/position>
  &lt;content line-spacing="0" shadow="1;#64000000;3;3;3" font-underline="0" box-height="205" font="Noto Sans" letter-spacing="0" font-pixel-size="150" font-italic="0" typewriter="0;2;1;0;0" alignment="2" font-weight="50" box-width="174.594" font-color="255,255,255,255">45&lt;/content>
 &lt;/item>
 &lt;item type="QGraphicsTextItem" z-index="0">
  &lt;position x="60" y="929">
   &lt;transform>1,0,0,0,1,0,0,0,1&lt;/transform>
  &lt;/position>
  &lt;content line-spacing="0" shadow="1;#64000000;3;3;3" font-underline="0" box-height="110" font="Noto Sans" letter-spacing="0" font-pixel-size="80" font-italic="0" typewriter="0;2;1;0;0" alignment="2" font-weight="50" box-width="291.234" font-color="255,255,255,255">Test no.&lt;/content>
 &lt;/item>
 &lt;startviewport rect="0,0,1920,1080"/>
 &lt;endviewport rect="0,0,1920,1080"/>
 &lt;background color="0,0,0,0"/>
&lt;/kdenlivetitle>
</property>
  <property name="kdenlive:folderid">-1</property>
  <property name="kdenlive:id">48</property>
  <property name="kdenlive:file_hash">4d81c377c361bac413d0a4f560bdef4d</property>
  <property name="force_reload">0</property>
  <property name="meta.media.width">1920</property>
  <property name="meta.media.height">1080</property>
 </producer>
 <producer id="producer47" in="00:00:00.000" out="00:00:10.800">
  <property name="length">325</property>
  <property name="eof">pause</property>
  <property name="resource"/>
  <property name="progressive">1</property>
  <property name="aspect_ratio">1</property>
  <property name="seekable">1</property>
  <property name="mlt_service">kdenlivetitle</property>
  <property name="kdenlive:duration">90</property>
  <property name="kdenlive:clipname">Test no.</property>
  <property name="xmldata">&lt;kdenlivetitle duration="90" LC_NUMERIC="C" width="1920" height="1080" out="89">
 &lt;item type="QGraphicsTextItem" z-index="1">
  &lt;position x="379" y="851">
   &lt;transform>1,0,0,0,1,0,0,0,1&lt;/transform>
  &lt;/position>
  &lt;content line-spacing="0" shadow="1;#64000000;3;3;3" font-underline="0" box-height="205" font="Noto Sans" letter-spacing="0" font-pixel-size="150" font-italic="0" typewriter="0;2;1;0;0" alignment="2" font-weight="50" box-width="174.594" font-color="255,255,255,255">46&lt;/content>
 &lt;/item>
 &lt;item type="QGraphicsTextItem" z-index="0">
  &lt;position x="60" y="929">
   &lt;transform>1,0,0,0,1,0,0,0,1&lt;/transform>
  &lt;/position>
  &lt;content line-spacing="0" shadow="1;#64000000;3;3;3" font-underline="0" box-height="110" font="Noto Sans" letter-spacing="0" font-pixel-size="80" font-italic="0" typewriter="0;2;1;0;0" alignment="2" font-weight="50" box-width="291.234" font-color="255,255,255,255">Test no.&lt;/content>
 &lt;/item>
 &lt;startviewport rect="0,0,1920,1080"/>
 &lt;endviewport rect="0,0,1920,1080"/>
 &lt;background color="0,0,0,0"/>
&lt;/kdenlivetitle>
</property>
  <property name="kdenlive:folderid">-1</property>
  <property name="kdenlive:id">49</property>
  <property name="kdenlive:file_hash">e739ddbd423048bcd0976fe01d4741e8</property>
  <property name="force_reload">0</property>
  <property name="meta.media.width">1920</property>
  <property name="meta.media.height">1080</property>
 </producer>
 <producer id="producer48" in="00:00:00.000" out="00:00:04.433">
  <property name="length">134</property>
  <property name="eof">pause</property>
  <property name="resource"/>
  <property name="progressive">1</property>
  <property name="aspect_ratio">1</property>
  <property name="seekable">1</property>
  <property name="mlt_service">kdenlivetitle</property>
  <property name="kdenlive:duration">90</property>
  <property name="kdenlive:clipname">Test no.</property>
  <property name="xmldata">&lt;kdenlivetitle duration="90" LC_NUMERIC="C" width="1920" height="1080" out="89">
 &lt;item type="QGraphicsTextItem" z-index="1">
  &lt;position x="379" y="851">
   &lt;transform>1,0,0,0,1,0,0,0,1&lt;/transform>
  &lt;/position>
  &lt;content line-spacing="0" shadow="1;#64000000;3;3;3" font-underline="0" box-height="205" font="Noto Sans" letter-spacing="0" font-pixel-size="150" font-italic="0" typewriter="0;2;1;0;0" alignment="2" font-weight="50" box-width="174.594" font-color="255,255,255,255">47&lt;/content>
 &lt;/item>
 &lt;item type="QGraphicsTextItem" z-index="0">
  &lt;position x="60" y="929">
   &lt;transform>1,0,0,0,1,0,0,0,1&lt;/transform>
  &lt;/position>
  &lt;content line-spacing="0" shadow="1;#64000000;3;3;3" font-underline="0" box-height="110" font="Noto Sans" letter-spacing="0" font-pixel-size="80" font-italic="0" typewriter="0;2;1;0;0" alignment="2" font-weight="50" box-width="291.234" font-color="255,255,255,255">Test no.&lt;/content>
 &lt;/item>
 &lt;startviewport rect="0,0,1920,1080"/>
 &lt;endviewport rect="0,0,1920,1080"/>
 &lt;background color="0,0,0,0"/>
&lt;/kdenlivetitle>
</property>
  <property name="kdenlive:file_hash">07dd1e5b1dec184ab745d811431672ff</property>
  <property name="kdenlive:folderid">-1</property>
  <property name="kdenlive:id">50</property>
  <property name="force_reload">0</property>
  <property name="meta.media.width">1920</property>
  <property name="meta.media.height">1080</property>
 </producer>
 <producer id="producer49" in="00:00:00.000" out="00:00:04.700">
  <property name="length">142</property>
  <property name="eof">pause</property>
  <property name="resource"/>
  <property name="progressive">1</property>
  <property name="aspect_ratio">1</property>
  <property name="seekable">1</property>
  <property name="mlt_service">kdenlivetitle</property>
  <property name="kdenlive:duration">90</property>
  <property name="kdenlive:clipname">Test no.</property>
  <property name="xmldata">&lt;kdenlivetitle duration="90" LC_NUMERIC="C" width="1920" height="1080" out="89">
 &lt;item type="QGraphicsTextItem" z-index="1">
  &lt;position x="379" y="851">
   &lt;transform>1,0,0,0,1,0,0,0,1&lt;/transform>
  &lt;/position>
  &lt;content line-spacing="0" shadow="1;#64000000;3;3;3" font-underline="0" box-height="205" font="Noto Sans" letter-spacing="0" font-pixel-size="150" font-italic="0" typewriter="0;2;1;0;0" alignment="2" font-weight="50" box-width="174.594" font-color="255,255,255,255">48&lt;/content>
 &lt;/item>
 &lt;item type="QGraphicsTextItem" z-index="0">
  &lt;position x="60" y="929">
   &lt;transform>1,0,0,0,1,0,0,0,1&lt;/transform>
  &lt;/position>
  &lt;content line-spacing="0" shadow="1;#64000000;3;3;3" font-underline="0" box-height="110" font="Noto Sans" letter-spacing="0" font-pixel-size="80" font-italic="0" typewriter="0;2;1;0;0" alignment="2" font-weight="50" box-width="291.234" font-color="255,255,255,255">Test no.&lt;/content>
 &lt;/item>
 &lt;startviewport rect="0,0,1920,1080"/>
 &lt;endviewport rect="0,0,1920,1080"/>
 &lt;background color="0,0,0,0"/>
&lt;/kdenlivetitle>
</property>
  <property name="kdenlive:folderid">-1</property>
  <property name="kdenlive:id">51</property>
  <property name="kdenlive:file_hash">7edf78dbef40c364dcca67e30ecc6d90</property>
  <property name="force_reload">0</property>
  <property name="meta.media.width">1920</property>
  <property name="meta.media.height">1080</property>
 </producer>
 <producer id="producer50" in="00:00:00.000" out="00:00:02.967">
  <property name="length">90</property>
  <property name="eof">pause</property>
  <property name="resource"/>
  <property name="progressive">1</property>
  <property name="aspect_ratio">1</property>
  <property name="seekable">1</property>
  <property name="mlt_service">kdenlivetitle</property>
  <property name="kdenlive:duration">90</property>
  <property name="kdenlive:clipname">Test no.</property>
  <property name="xmldata">&lt;kdenlivetitle duration="90" LC_NUMERIC="C" width="1920" height="1080" out="89">
 &lt;item type="QGraphicsTextItem" z-index="1">
  &lt;position x="379" y="851">
   &lt;transform>1,0,0,0,1,0,0,0,1&lt;/transform>
  &lt;/position>
  &lt;content line-spacing="0" shadow="1;#64000000;3;3;3" font-underline="0" box-height="205" font="Noto Sans" letter-spacing="0" font-pixel-size="150" font-italic="0" typewriter="0;2;1;0;0" alignment="2" font-weight="50" box-width="174.594" font-color="255,255,255,255">49&lt;/content>
 &lt;/item>
 &lt;item type="QGraphicsTextItem" z-index="0">
  &lt;position x="60" y="929">
   &lt;transform>1,0,0,0,1,0,0,0,1&lt;/transform>
  &lt;/position>
  &lt;content line-spacing="0" shadow="1;#64000000;3;3;3" font-underline="0" box-height="110" font="Noto Sans" letter-spacing="0" font-pixel-size="80" font-italic="0" typewriter="0;2;1;0;0" alignment="2" font-weight="50" box-width="291.234" font-color="255,255,255,255">Test no.&lt;/content>
 &lt;/item>
 &lt;startviewport rect="0,0,1920,1080"/>
 &lt;endviewport rect="0,0,1920,1080"/>
 &lt;background color="0,0,0,0"/>
&lt;/kdenlivetitle>
</property>
  <property name="kdenlive:folderid">-1</property>
  <property name="kdenlive:id">52</property>
  <property name="kdenlive:file_hash">da5ea31d7acabeecde634a93c7abc771</property>
  <property name="force_reload">0</property>
  <property name="meta.media.width">1920</property>
  <property name="meta.media.height">1080</property>
 </producer>
 <producer id="producer51" in="00:00:00.000" out="00:00:02.967">
  <property name="length">90</property>
  <property name="eof">pause</property>
  <property name="resource"/>
  <property name="progressive">1</property>
  <property name="aspect_ratio">1</property>
  <property name="seekable">1</property>
  <property name="mlt_service">kdenlivetitle</property>
  <property name="kdenlive:duration">90</property>
  <property name="kdenlive:clipname">Test no.</property>
  <property name="xmldata">&lt;kdenlivetitle duration="90" LC_NUMERIC="C" width="1920" height="1080" out="89">
 &lt;item type="QGraphicsTextItem" z-index="1">
  &lt;position x="379" y="851">
   &lt;transform>1,0,0,0,1,0,0,0,1&lt;/transform>
  &lt;/position>
  &lt;content line-spacing="0" shadow="1;#64000000;3;3;3" font-underline="0" box-height="205" font="Noto Sans" letter-spacing="0" font-pixel-size="150" font-italic="0" typewriter="0;2;1;0;0" alignment="2" font-weight="50" box-width="174.594" font-color="255,255,255,255">50&lt;/content>
 &lt;/item>
 &lt;item type="QGraphicsTextItem" z-index="0">
  &lt;position x="60" y="929">
   &lt;transform>1,0,0,0,1,0,0,0,1&lt;/transform>
  &lt;/position>
  &lt;content line-spacing="0" shadow="1;#64000000;3;3;3" font-underline="0" box-height="110" font="Noto Sans" letter-spacing="0" font-pixel-size="80" font-italic="0" typewriter="0;2;1;0;0" alignment="2" font-weight="50" box-width="291.234" font-color="255,255,255,255">Test no.&lt;/content>
 &lt;/item>
 &lt;startviewport rect="0,0,1920,1080"/>
 &lt;endviewport rect="0,0,1920,1080"/>
 &lt;background color="0,0,0,0"/>
&lt;/kdenlivetitle>
</property>
  <property name="kdenlive:folderid">-1</property>
  <property name="kdenlive:id">53</property>
  <property name="kdenlive:file_hash">2718669a8a4ec0ac92e1197e3865b9d1</property>
  <property name="force_reload">0</property>
  <property name="meta.media.width">1920</property>
  <property name="meta.media.height">1080</property>
 </producer>
 <producer id="producer52" in="00:00:00.000" out="00:00:02.967">
  <property name="length">90</property>
  <property name="eof">pause</property>
  <property name="resource"/>
  <property name="progressive">1</property>
  <property name="aspect_ratio">1</property>
  <property name="seekable">1</property>
  <property name="mlt_service">kdenlivetitle</property>
  <property name="kdenlive:duration">90</property>
  <property name="kdenlive:clipname">Test no.</property>
  <property name="xmldata">&lt;kdenlivetitle duration="90" LC_NUMERIC="C" width="1920" height="1080" out="89">
 &lt;item type="QGraphicsTextItem" z-index="1">
  &lt;position x="379" y="851">
   &lt;transform>1,0,0,0,1,0,0,0,1&lt;/transform>
  &lt;/position>
  &lt;content line-spacing="0" shadow="1;#64000000;3;3;3" font-underline="0" box-height="205" font="Noto Sans" letter-spacing="0" font-pixel-size="150" font-italic="0" typewriter="0;2;1;0;0" alignment="2" font-weight="50" box-width="174.594" font-color="255,255,255,255">51&lt;/content>
 &lt;/item>
 &lt;item type="QGraphicsTextItem" z-index="0">
  &lt;position x="60" y="929">
   &lt;transform>1,0,0,0,1,0,0,0,1&lt;/transform>
  &lt;/position>
  &lt;content line-spacing="0" shadow="1;#64000000;3;3;3" font-underline="0" box-height="110" font="Noto Sans" letter-spacing="0" font-pixel-size="80" font-italic="0" typewriter="0;2;1;0;0" alignment="2" font-weight="50" box-width="291.234" font-color="255,255,255,255">Test no.&lt;/content>
 &lt;/item>
 &lt;startviewport rect="0,0,1920,1080"/>
 &lt;endviewport rect="0,0,1920,1080"/>
 &lt;background color="0,0,0,0"/>
&lt;/kdenlivetitle>
</property>
  <property name="kdenlive:folderid">-1</property>
  <property name="kdenlive:id">54</property>
  <property name="kdenlive:file_hash">ff86e707ef07a9e8a68ea03924bab436</property>
  <property name="force_reload">0</property>
  <property name="meta.media.width">1920</property>
  <property name="meta.media.height">1080</property>
 </producer>
 <producer id="producer53" in="00:00:00.000" out="00:01:01.800">
  <property name="length">1855</property>
  <property name="eof">pause</property>
  <property name="resource"/>
  <property name="progressive">1</property>
  <property name="aspect_ratio">1</property>
  <property name="seekable">1</property>
  <property name="mlt_service">kdenlivetitle</property>
  <property name="kdenlive:duration">90</property>
  <property name="kdenlive:clipname">Test no.</property>
  <property name="xmldata">&lt;kdenlivetitle duration="90" LC_NUMERIC="C" width="1920" height="1080" out="89">
 &lt;item type="QGraphicsTextItem" z-index="1">
  &lt;position x="379" y="851">
   &lt;transform>1,0,0,0,1,0,0,0,1&lt;/transform>
  &lt;/position>
  &lt;content line-spacing="0" shadow="1;#64000000;3;3;3" font-underline="0" box-height="205" font="Noto Sans" letter-spacing="0" font-pixel-size="150" font-italic="0" typewriter="0;2;1;0;0" alignment="2" font-weight="50" box-width="174.594" font-color="255,255,255,255">52&lt;/content>
 &lt;/item>
 &lt;item type="QGraphicsTextItem" z-index="0">
  &lt;position x="60" y="929">
   &lt;transform>1,0,0,0,1,0,0,0,1&lt;/transform>
  &lt;/position>
  &lt;content line-spacing="0" shadow="1;#64000000;3;3;3" font-underline="0" box-height="110" font="Noto Sans" letter-spacing="0" font-pixel-size="80" font-italic="0" typewriter="0;2;1;0;0" alignment="2" font-weight="50" box-width="291.234" font-color="255,255,255,255">Test no.&lt;/content>
 &lt;/item>
 &lt;startviewport rect="0,0,1920,1080"/>
 &lt;endviewport rect="0,0,1920,1080"/>
 &lt;background color="0,0,0,0"/>
&lt;/kdenlivetitle>
</property>
  <property name="kdenlive:folderid">-1</property>
  <property name="kdenlive:id">55</property>
  <property name="kdenlive:file_hash">7c3432f909fe8d0b35b50940f47d045d</property>
  <property name="force_reload">0</property>
  <property name="meta.media.width">1920</property>
  <property name="meta.media.height">1080</property>
 </producer>
 <producer id="producer54" in="00:00:00.000" out="00:00:22.433">
  <property name="length">674</property>
  <property name="eof">pause</property>
  <property name="resource"/>
  <property name="progressive">1</property>
  <property name="aspect_ratio">1</property>
  <property name="seekable">1</property>
  <property name="mlt_service">kdenlivetitle</property>
  <property name="kdenlive:duration">90</property>
  <property name="kdenlive:clipname">Test no.</property>
  <property name="xmldata">&lt;kdenlivetitle duration="90" LC_NUMERIC="C" width="1920" height="1080" out="89">
 &lt;item type="QGraphicsTextItem" z-index="1">
  &lt;position x="379" y="851">
   &lt;transform>1,0,0,0,1,0,0,0,1&lt;/transform>
  &lt;/position>
  &lt;content line-spacing="0" shadow="1;#64000000;3;3;3" font-underline="0" box-height="205" font="Noto Sans" letter-spacing="0" font-pixel-size="150" font-italic="0" typewriter="0;2;1;0;0" alignment="2" font-weight="50" box-width="174.594" font-color="255,255,255,255">53&lt;/content>
 &lt;/item>
 &lt;item type="QGraphicsTextItem" z-index="0">
  &lt;position x="60" y="929">
   &lt;transform>1,0,0,0,1,0,0,0,1&lt;/transform>
  &lt;/position>
  &lt;content line-spacing="0" shadow="1;#64000000;3;3;3" font-underline="0" box-height="110" font="Noto Sans" letter-spacing="0" font-pixel-size="80" font-italic="0" typewriter="0;2;1;0;0" alignment="2" font-weight="50" box-width="291.234" font-color="255,255,255,255">Test no.&lt;/content>
 &lt;/item>
 &lt;startviewport rect="0,0,1920,1080"/>
 &lt;endviewport rect="0,0,1920,1080"/>
 &lt;background color="0,0,0,0"/>
&lt;/kdenlivetitle>
</property>
  <property name="kdenlive:folderid">-1</property>
  <property name="kdenlive:id">56</property>
  <property name="kdenlive:file_hash">56e4dce0acbdf4a3c897dd4927d0bb07</property>
  <property name="force_reload">0</property>
  <property name="meta.media.width">1920</property>
  <property name="meta.media.height">1080</property>
 </producer>
 <producer id="producer55" in="00:00:00.000" out="00:00:58.000">
  <property name="length">1741</property>
  <property name="eof">pause</property>
  <property name="resource"/>
  <property name="progressive">1</property>
  <property name="aspect_ratio">1</property>
  <property name="seekable">1</property>
  <property name="mlt_service">kdenlivetitle</property>
  <property name="kdenlive:duration">90</property>
  <property name="kdenlive:clipname">Test no.</property>
  <property name="xmldata">&lt;kdenlivetitle duration="90" LC_NUMERIC="C" width="1920" height="1080" out="89">
 &lt;item type="QGraphicsTextItem" z-index="2">
  &lt;position x="580" y="960">
   &lt;transform>1,0,0,0,1,0,0,0,1&lt;/transform>
  &lt;/position>
  &lt;content line-spacing="0" shadow="1;#64000000;3;3;3" font-underline="0" box-height="69" font="Noto Sans" letter-spacing="0" font-pixel-size="50" font-italic="0" typewriter="0;2;1;0;0" alignment="2" font-weight="50" box-width="1172.95" font-color="255,255,255,255">(developer tools were used to display touch input)&lt;/content>
 &lt;/item>
 &lt;item type="QGraphicsTextItem" z-index="1">
  &lt;position x="379" y="851">
   &lt;transform>1,0,0,0,1,0,0,0,1&lt;/transform>
  &lt;/position>
  &lt;content line-spacing="0" shadow="1;#64000000;3;3;3" font-underline="0" box-height="205" font="Noto Sans" letter-spacing="0" font-pixel-size="150" font-italic="0" typewriter="0;2;1;0;0" alignment="2" font-weight="50" box-width="171.594" font-color="255,255,255,255">54&lt;/content>
 &lt;/item>
 &lt;item type="QGraphicsTextItem" z-index="0">
  &lt;position x="60" y="929">
   &lt;transform>1,0,0,0,1,0,0,0,1&lt;/transform>
  &lt;/position>
  &lt;content line-spacing="0" shadow="1;#64000000;3;3;3" font-underline="0" box-height="110" font="Noto Sans" letter-spacing="0" font-pixel-size="80" font-italic="0" typewriter="0;2;1;0;0" alignment="2" font-weight="50" box-width="291.234" font-color="255,255,255,255">Test no.&lt;/content>
 &lt;/item>
 &lt;startviewport rect="0,0,1920,1080"/>
 &lt;endviewport rect="0,0,1920,1080"/>
 &lt;background color="0,0,0,0"/>
&lt;/kdenlivetitle>
</property>
  <property name="kdenlive:folderid">-1</property>
  <property name="kdenlive:id">57</property>
  <property name="kdenlive:file_hash">46489285de8a87049cc14385f6d045ea</property>
  <property name="force_reload">0</property>
  <property name="meta.media.width">1920</property>
  <property name="meta.media.height">1080</property>
 </producer>
 <producer id="producer56" in="00:00:00.000" out="00:00:56.533">
  <property name="length">1697</property>
  <property name="eof">pause</property>
  <property name="resource">Screen_Recording_20220227-133634_ComboKing.mp4</property>
  <property name="meta.media.nb_streams">2</property>
  <property name="meta.media.0.stream.type">audio</property>
  <property name="meta.media.0.codec.sample_fmt">fltp</property>
  <property name="meta.media.0.codec.sample_rate">48000</property>
  <property name="meta.media.0.codec.channels">2</property>
  <property name="meta.media.0.codec.name">aac</property>
  <property name="meta.media.0.codec.long_name">AAC (Advanced Audio Coding)</property>
  <property name="meta.media.0.codec.bit_rate">191935</property>
  <property name="meta.attr.0.stream.creation_time.markup">2022-02-27T13:36:33.000000Z</property>
  <property name="meta.attr.0.stream.language.markup">eng</property>
  <property name="meta.attr.0.stream.handler_name.markup">SoundHandle</property>
  <property name="meta.attr.0.stream.vendor_id.markup">[0][0][0][0]</property>
  <property name="meta.media.1.stream.type">video</property>
  <property name="meta.media.1.stream.frame_rate">59.9443</property>
  <property name="meta.media.1.stream.sample_aspect_ratio">1</property>
  <property name="meta.media.1.codec.width">2220</property>
  <property name="meta.media.1.codec.height">1080</property>
  <property name="meta.media.1.codec.rotate">0</property>
  <property name="meta.media.1.codec.pix_fmt">yuv420p</property>
  <property name="meta.media.1.codec.sample_aspect_ratio">0</property>
  <property name="meta.media.1.codec.colorspace">709</property>
  <property name="meta.media.1.codec.color_trc">1</property>
  <property name="meta.media.1.codec.name">h264</property>
  <property name="meta.media.1.codec.long_name">H.264 / AVC / MPEG-4 AVC / MPEG-4 part 10</property>
  <property name="meta.media.1.codec.bit_rate">4316912</property>
  <property name="meta.attr.1.stream.creation_time.markup">2022-02-27T13:36:33.000000Z</property>
  <property name="meta.attr.1.stream.language.markup">eng</property>
  <property name="meta.attr.1.stream.handler_name.markup">VideoHandle</property>
  <property name="meta.attr.1.stream.vendor_id.markup">[0][0][0][0]</property>
  <property name="meta.attr.major_brand.markup">mp42</property>
  <property name="meta.attr.minor_version.markup">0</property>
  <property name="meta.attr.compatible_brands.markup">isommp42</property>
  <property name="meta.attr.creation_time.markup">2022-02-27T13:36:33.000000Z</property>
  <property name="meta.attr.com.android.version.markup">10</property>
  <property name="seekable">1</property>
  <property name="meta.media.sample_aspect_num">1</property>
  <property name="meta.media.sample_aspect_den">1</property>
  <property name="aspect_ratio">1</property>
  <property name="audio_index">0</property>
  <property name="video_index">1</property>
  <property name="mute_on_pause">0</property>
  <property name="mlt_service">avformat-novalidate</property>
  <property name="kdenlive:clipname"/>
  <property name="kdenlive:folderid">-1</property>
  <property name="meta.media.frame_rate_num">1019</property>
  <property name="meta.media.frame_rate_den">17</property>
  <property name="meta.media.colorspace">709</property>
  <property name="meta.media.color_trc">1</property>
  <property name="meta.media.has_b_frames">0</property>
  <property name="meta.media.width">2220</property>
  <property name="meta.media.height">1080</property>
  <property name="meta.media.color_range">mpeg</property>
  <property name="kdenlive:id">58</property>
  <property name="kdenlive:file_size">31934220</property>
  <property name="kdenlive:file_hash">45427eeedcaae57cb95ac4a2f21453de</property>
  <property name="meta.media.variable_frame_rate">1</property>
  <property name="meta.media.top_field_first">0</property>
  <property name="meta.media.progressive">1</property>
  <property name="kdenlive:audio_max0">251</property>
 </producer>
 <playlist id="main_bin">
  <property name="kdenlive:docproperties.activeTrack">2</property>
  <property name="kdenlive:docproperties.audioChannels">2</property>
  <property name="kdenlive:docproperties.audioTarget">-1</property>
  <property name="kdenlive:docproperties.disablepreview">0</property>
  <property name="kdenlive:docproperties.documentid">1645901657798</property>
  <property name="kdenlive:docproperties.enableTimelineZone">0</property>
  <property name="kdenlive:docproperties.enableexternalproxy">0</property>
  <property name="kdenlive:docproperties.enableproxy">0</property>
  <property name="kdenlive:docproperties.externalproxyparams"/>
  <property name="kdenlive:docproperties.generateimageproxy">0</property>
  <property name="kdenlive:docproperties.generateproxy">0</property>
  <property name="kdenlive:docproperties.groups">[
    {
        "children": [
            {
                "data": "0:19539",
                "leaf": "clip",
                "type": "Leaf"
            },
            {
                "data": "1:19539",
                "leaf": "clip",
                "type": "Leaf"
            }
        ],
        "type": "AVSplit"
    },
    {
        "children": [
            {
                "data": "0:0",
                "leaf": "clip",
                "type": "Leaf"
            },
            {
                "data": "1:0",
                "leaf": "clip",
                "type": "Leaf"
            }
        ],
        "type": "AVSplit"
    },
    {
        "children": [
            {
                "data": "1:15522",
                "leaf": "clip",
                "type": "Leaf"
            },
            {
                "data": "0:15522",
                "leaf": "clip",
                "type": "Leaf"
            }
        ],
        "type": "AVSplit"
    },
    {
        "children": [
            {
                "data": "1:21968",
                "leaf": "clip",
                "type": "Leaf"
            },
            {
                "data": "0:21968",
                "leaf": "clip",
                "type": "Leaf"
            }
        ],
        "type": "AVSplit"
    }
]
</property>
  <property name="kdenlive:docproperties.kdenliveversion">21.12.2</property>
  <property name="kdenlive:docproperties.position">8114</property>
  <property name="kdenlive:docproperties.previewextension"/>
  <property name="kdenlive:docproperties.previewparameters"/>
  <property name="kdenlive:docproperties.profile">atsc_1080p_30</property>
  <property name="kdenlive:docproperties.proxyextension"/>
  <property name="kdenlive:docproperties.proxyimageminsize">2000</property>
  <property name="kdenlive:docproperties.proxyimagesize">800</property>
  <property name="kdenlive:docproperties.proxyminsize">1000</property>
  <property name="kdenlive:docproperties.proxyparams"/>
  <property name="kdenlive:docproperties.proxyresize">640</property>
  <property name="kdenlive:docproperties.scrollPos">17604</property>
  <property name="kdenlive:docproperties.seekOffset">30000</property>
  <property name="kdenlive:docproperties.storagefolder">/1645901657798</property>
  <property name="kdenlive:docproperties.version">1.04</property>
  <property name="kdenlive:docproperties.verticalzoom">1</property>
  <property name="kdenlive:docproperties.videoTarget">1</property>
  <property name="kdenlive:docproperties.zonein">224</property>
  <property name="kdenlive:docproperties.zoneout">225</property>
  <property name="kdenlive:docproperties.zoom">7</property>
  <property name="kdenlive:documentnotes"/>
  <property name="xml_retain">1</property>
  <entry producer="producer0" in="00:00:00.000" out="00:21:47.033"/>
  <entry producer="producer1" in="00:00:00.000" out="00:00:53.133"/>
  <entry producer="producer2" in="00:00:00.000" out="00:00:22.967"/>
  <entry producer="producer3" in="00:00:00.000" out="00:00:02.967"/>
  <entry producer="producer4" in="00:00:00.000" out="00:00:02.967"/>
  <entry producer="producer5" in="00:00:00.000" out="00:00:02.967"/>
  <entry producer="producer6" in="00:00:00.000" out="00:00:02.967"/>
  <entry producer="producer7" in="00:00:00.000" out="00:00:02.967"/>
  <entry producer="producer8" in="00:00:00.000" out="00:00:02.967"/>
  <entry producer="producer9" in="00:00:00.000" out="00:00:02.967"/>
  <entry producer="producer10" in="00:00:00.000" out="00:00:44.300"/>
  <entry producer="producer11" in="00:00:00.000" out="00:00:02.967"/>
  <entry producer="producer12" in="00:00:00.000" out="00:00:02.967"/>
  <entry producer="producer13" in="00:00:00.000" out="00:00:02.967"/>
  <entry producer="producer14" in="00:00:00.000" out="00:00:19.667"/>
  <entry producer="producer15" in="00:00:00.000" out="00:00:02.967"/>
  <entry producer="producer16" in="00:00:00.000" out="00:00:02.967"/>
  <entry producer="producer17" in="00:00:00.000" out="00:00:02.967"/>
  <entry producer="producer18" in="00:00:00.000" out="00:00:02.967"/>
  <entry producer="producer19" in="00:00:00.000" out="00:00:02.967"/>
  <entry producer="producer20" in="00:00:00.000" out="00:00:02.967"/>
  <entry producer="producer21" in="00:00:00.000" out="00:00:02.967"/>
  <entry producer="producer22" in="00:00:00.000" out="00:00:02.967"/>
  <entry producer="producer23" in="00:00:00.000" out="00:00:02.967"/>
  <entry producer="producer24" in="00:00:00.000" out="00:00:02.967"/>
  <entry producer="producer25" in="00:00:00.000" out="00:00:02.967"/>
  <entry producer="producer26" in="00:00:00.000" out="00:00:04.600"/>
  <entry producer="producer27" in="00:00:00.000" out="00:00:02.967"/>
  <entry producer="producer28" in="00:00:00.000" out="00:00:02.967"/>
  <entry producer="producer29" in="00:00:00.000" out="00:00:04.700"/>
  <entry producer="producer30" in="00:00:00.000" out="00:00:16.433"/>
  <entry producer="producer31" in="00:00:00.000" out="00:00:02.967"/>
  <entry producer="producer32" in="00:00:00.000" out="00:00:02.967"/>
  <entry producer="producer33" in="00:00:00.000" out="00:00:02.967"/>
  <entry producer="producer34" in="00:00:00.000" out="00:00:02.967"/>
  <entry producer="producer35" in="00:00:00.000" out="00:00:22.700"/>
  <entry producer="producer36" in="00:00:00.000" out="00:00:11.067"/>
  <entry producer="producer37" in="00:00:00.000" out="00:00:02.967"/>
  <entry producer="producer38" in="00:00:00.000" out="00:00:09.267"/>
  <entry producer="producer39" in="00:00:00.000" out="00:00:02.967"/>
  <entry producer="producer40" in="00:00:00.000" out="00:00:02.967"/>
  <entry producer="producer41" in="00:00:00.000" out="00:00:02.967"/>
  <entry producer="producer42" in="00:00:00.000" out="00:02:27.167"/>
  <entry producer="producer43" in="00:00:00.000" out="00:00:02.967"/>
  <entry producer="producer44" in="00:00:00.000" out="00:00:05.133"/>
  <entry producer="producer45" in="00:00:00.000" out="00:00:10.700"/>
  <entry producer="producer46" in="00:00:00.000" out="00:00:04.533"/>
  <entry producer="producer47" in="00:00:00.000" out="00:00:10.800"/>
  <entry producer="producer48" in="00:00:00.000" out="00:00:04.433"/>
  <entry producer="producer49" in="00:00:00.000" out="00:00:04.700"/>
  <entry producer="producer50" in="00:00:00.000" out="00:00:02.967"/>
  <entry producer="producer51" in="00:00:00.000" out="00:00:02.967"/>
  <entry producer="producer52" in="00:00:00.000" out="00:00:02.967"/>
  <entry producer="producer53" in="00:00:00.000" out="00:01:01.800"/>
  <entry producer="producer54" in="00:00:00.000" out="00:00:22.433"/>
  <entry producer="producer55" in="00:00:00.000" out="00:00:02.967"/>
  <entry producer="producer56" in="00:00:00.000" out="00:00:56.533"/>
 </playlist>
 <producer id="black_track" in="00:00:00.000" out="00:29:48.833">
  <property name="length">2147483647</property>
  <property name="eof">continue</property>
  <property name="resource">black</property>
  <property name="aspect_ratio">1</property>
  <property name="mlt_service">color</property>
  <property name="mlt_image_format">rgba</property>
  <property name="set.test_audio">0</property>
 </producer>
 <producer id="producer57" in="00:00:00.000" out="00:21:47.033">
  <property name="length">39212</property>
  <property name="eof">pause</property>
  <property name="resource">2022-02-26_17-56-56.mp4</property>
  <property name="audio_index">1</property>
  <property name="video_index">0</property>
  <property name="mute_on_pause">0</property>
  <property name="mlt_service">avformat-novalidate</property>
  <property name="seekable">1</property>
  <property name="aspect_ratio">1</property>
  <property name="kdenlive:clipname"/>
  <property name="kdenlive:folderid">-1</property>
  <property name="kdenlive:id">2</property>
  <property name="kdenlive:file_size">96928905</property>
  <property name="kdenlive:file_hash">53575064412cf67ecb87bdfb074d6200</property>
  <property name="kdenlive:audio_max1">251</property>
  <property name="xml">was here</property>
  <property name="meta.media.nb_streams">2</property>
  <property name="meta.media.0.stream.type">video</property>
  <property name="meta.media.0.stream.frame_rate">30</property>
  <property name="meta.media.0.stream.sample_aspect_ratio">1</property>
  <property name="meta.media.0.codec.width">1920</property>
  <property name="meta.media.0.codec.height">1080</property>
  <property name="meta.media.0.codec.rotate">0</property>
  <property name="meta.media.0.codec.pix_fmt">yuv420p</property>
  <property name="meta.media.0.codec.sample_aspect_ratio">1</property>
  <property name="meta.media.0.codec.colorspace">709</property>
  <property name="meta.media.0.codec.color_trc">1</property>
  <property name="meta.media.0.codec.name">h264</property>
  <property name="meta.media.0.codec.long_name">H.264 / AVC / MPEG-4 AVC / MPEG-4 part 10</property>
  <property name="meta.media.0.codec.bit_rate">389806</property>
  <property name="meta.attr.0.stream.handler_name.markup">VideoHandler</property>
  <property name="meta.attr.0.stream.vendor_id.markup">[0][0][0][0]</property>
  <property name="meta.media.1.stream.type">audio</property>
  <property name="meta.media.1.codec.sample_fmt">fltp</property>
  <property name="meta.media.1.codec.sample_rate">48000</property>
  <property name="meta.media.1.codec.channels">2</property>
  <property name="meta.media.1.codec.name">aac</property>
  <property name="meta.media.1.codec.long_name">AAC (Advanced Audio Coding)</property>
  <property name="meta.media.1.codec.bit_rate">192000</property>
  <property name="meta.attr.1.stream.handler_name.markup">SoundHandler</property>
  <property name="meta.attr.1.stream.vendor_id.markup">[0][0][0][0]</property>
  <property name="meta.attr.major_brand.markup">isom</property>
  <property name="meta.attr.minor_version.markup">512</property>
  <property name="meta.attr.compatible_brands.markup">isomiso2avc1mp41</property>
  <property name="meta.attr.encoder.markup">Lavf58.76.100</property>
  <property name="meta.media.sample_aspect_num">1</property>
  <property name="meta.media.sample_aspect_den">1</property>
  <property name="meta.media.frame_rate_num">39211000</property>
  <property name="meta.media.frame_rate_den">1307033</property>
  <property name="meta.media.colorspace">709</property>
  <property name="meta.media.color_trc">1</property>
  <property name="meta.media.has_b_frames">1</property>
  <property name="meta.media.width">1920</property>
  <property name="meta.media.height">1080</property>
  <property name="meta.media.color_range">mpeg</property>
  <property name="meta.media.top_field_first">0</property>
  <property name="meta.media.progressive">1</property>
  <property name="set.test_audio">0</property>
  <property name="set.test_image">1</property>
 </producer>
 <producer id="producer58" in="00:00:00.000" out="00:00:56.533">
  <property name="length">1697</property>
  <property name="eof">pause</property>
  <property name="resource">Screen_Recording_20220227-133634_ComboKing.mp4</property>
  <property name="audio_index">0</property>
  <property name="video_index">1</property>
  <property name="mute_on_pause">0</property>
  <property name="mlt_service">avformat-novalidate</property>
  <property name="seekable">1</property>
  <property name="aspect_ratio">1</property>
  <property name="kdenlive:clipname"/>
  <property name="kdenlive:folderid">-1</property>
  <property name="kdenlive:id">58</property>
  <property name="kdenlive:file_size">31934220</property>
  <property name="kdenlive:file_hash">45427eeedcaae57cb95ac4a2f21453de</property>
  <property name="kdenlive:audio_max0">251</property>
  <property name="xml">was here</property>
  <property name="meta.media.nb_streams">2</property>
  <property name="meta.media.0.stream.type">audio</property>
  <property name="meta.media.0.codec.sample_fmt">fltp</property>
  <property name="meta.media.0.codec.sample_rate">48000</property>
  <property name="meta.media.0.codec.channels">2</property>
  <property name="meta.media.0.codec.name">aac</property>
  <property name="meta.media.0.codec.long_name">AAC (Advanced Audio Coding)</property>
  <property name="meta.media.0.codec.bit_rate">191935</property>
  <property name="meta.attr.0.stream.creation_time.markup">2022-02-27T13:36:33.000000Z</property>
  <property name="meta.attr.0.stream.language.markup">eng</property>
  <property name="meta.attr.0.stream.handler_name.markup">SoundHandle</property>
  <property name="meta.attr.0.stream.vendor_id.markup">[0][0][0][0]</property>
  <property name="meta.media.1.stream.type">video</property>
  <property name="meta.media.1.stream.frame_rate">59.9443</property>
  <property name="meta.media.1.stream.sample_aspect_ratio">1</property>
  <property name="meta.media.1.codec.width">2220</property>
  <property name="meta.media.1.codec.height">1080</property>
  <property name="meta.media.1.codec.rotate">0</property>
  <property name="meta.media.1.codec.pix_fmt">yuv420p</property>
  <property name="meta.media.1.codec.sample_aspect_ratio">0</property>
  <property name="meta.media.1.codec.colorspace">709</property>
  <property name="meta.media.1.codec.color_trc">1</property>
  <property name="meta.media.1.codec.name">h264</property>
  <property name="meta.media.1.codec.long_name">H.264 / AVC / MPEG-4 AVC / MPEG-4 part 10</property>
  <property name="meta.media.1.codec.bit_rate">4316912</property>
  <property name="meta.attr.1.stream.creation_time.markup">2022-02-27T13:36:33.000000Z</property>
  <property name="meta.attr.1.stream.language.markup">eng</property>
  <property name="meta.attr.1.stream.handler_name.markup">VideoHandle</property>
  <property name="meta.attr.1.stream.vendor_id.markup">[0][0][0][0]</property>
  <property name="meta.attr.major_brand.markup">mp42</property>
  <property name="meta.attr.minor_version.markup">0</property>
  <property name="meta.attr.compatible_brands.markup">isommp42</property>
  <property name="meta.attr.creation_time.markup">2022-02-27T13:36:33.000000Z</property>
  <property name="meta.attr.com.android.version.markup">10</property>
  <property name="meta.media.sample_aspect_num">1</property>
  <property name="meta.media.sample_aspect_den">1</property>
  <property name="meta.media.frame_rate_num">1019</property>
  <property name="meta.media.frame_rate_den">17</property>
  <property name="meta.media.colorspace">709</property>
  <property name="meta.media.color_trc">1</property>
  <property name="meta.media.has_b_frames">0</property>
  <property name="meta.media.width">2220</property>
  <property name="meta.media.height">1080</property>
  <property name="meta.media.color_range">mpeg</property>
  <property name="meta.media.variable_frame_rate">1</property>
  <property name="meta.media.top_field_first">0</property>
  <property name="meta.media.progressive">1</property>
  <property name="set.test_audio">0</property>
  <property name="set.test_image">1</property>
 </producer>
 <playlist id="playlist0">
  <property name="kdenlive:audio_track">1</property>
  <entry producer="producer57" in="00:00:00.000" out="00:08:37.367">
   <property name="kdenlive:id">2</property>
   <filter id="filter0" in="00:08:36.367" out="00:08:37.367">
    <property name="window">75</property>
    <property name="max_gain">20dB</property>
    <property name="mlt_service">volume</property>
    <property name="kdenlive_id">fadeout</property>
    <property name="gain">1</property>
    <property name="end">0</property>
    <property name="kdenlive:collapsed">0</property>
   </filter>
  </entry>
  <entry producer="producer57" in="00:17:13.833" out="00:19:27.700">
   <property name="kdenlive:id">2</property>
   <filter id="filter1" in="00:19:26.667" out="00:19:27.700">
    <property name="window">75</property>
    <property name="max_gain">20dB</property>
    <property name="mlt_service">volume</property>
    <property name="kdenlive_id">fadeout</property>
    <property name="gain">1</property>
    <property name="end">0</property>
   </filter>
   <filter id="filter2" in="00:17:13.833" out="00:17:14.767">
    <property name="window">75</property>
    <property name="max_gain">20dB</property>
    <property name="mlt_service">volume</property>
    <property name="kdenlive_id">fadein</property>
    <property name="gain">0</property>
    <property name="end">1</property>
   </filter>
  </entry>
  <entry producer="producer57" in="00:20:16.767" out="00:21:37.700">
   <property name="kdenlive:id">2</property>
   <filter id="filter3" in="00:21:36.700" out="00:21:37.700">
    <property name="window">75</property>
    <property name="max_gain">20dB</property>
    <property name="mlt_service">volume</property>
    <property name="kdenlive_id">fadeout</property>
    <property name="gain">1</property>
    <property name="end">0</property>
   </filter>
  </entry>
  <entry producer="producer58" in="00:00:00.000" out="00:00:56.533">
   <property name="kdenlive:id">58</property>
  </entry>
 </playlist>
 <playlist id="playlist1">
  <property name="kdenlive:audio_track">1</property>
 </playlist>
 <tractor id="tractor0" in="00:00:00.000" out="00:13:08.800">
  <property name="kdenlive:audio_track">1</property>
  <property name="kdenlive:trackheight">67</property>
  <property name="kdenlive:timeline_active">1</property>
  <property name="kdenlive:collapsed">0</property>
  <property name="kdenlive:thumbs_format"/>
  <property name="kdenlive:audio_rec"/>
  <track hide="video" producer="playlist0"/>
  <track hide="video" producer="playlist1"/>
  <filter id="filter4">
   <property name="window">75</property>
   <property name="max_gain">20dB</property>
   <property name="mlt_service">volume</property>
   <property name="internal_added">237</property>
   <property name="disable">1</property>
  </filter>
  <filter id="filter5">
   <property name="channel">-1</property>
   <property name="mlt_service">panner</property>
   <property name="internal_added">237</property>
   <property name="start">0.5</property>
   <property name="disable">1</property>
  </filter>
  <filter id="filter6">
   <property name="iec_scale">0</property>
   <property name="mlt_service">audiolevel</property>
   <property name="disable">1</property>
  </filter>
 </tractor>
 <producer id="producer59" in="00:00:00.000" out="00:21:47.033">
  <property name="length">39212</property>
  <property name="eof">pause</property>
  <property name="resource">2022-02-26_17-56-56.mp4</property>
  <property name="audio_index">1</property>
  <property name="video_index">0</property>
  <property name="mute_on_pause">0</property>
  <property name="mlt_service">avformat-novalidate</property>
  <property name="seekable">1</property>
  <property name="aspect_ratio">1</property>
  <property name="kdenlive:clipname"/>
  <property name="kdenlive:folderid">-1</property>
  <property name="kdenlive:id">2</property>
  <property name="kdenlive:file_size">96928905</property>
  <property name="kdenlive:file_hash">53575064412cf67ecb87bdfb074d6200</property>
  <property name="kdenlive:audio_max1">251</property>
  <property name="xml">was here</property>
  <property name="meta.media.nb_streams">2</property>
  <property name="meta.media.0.stream.type">video</property>
  <property name="meta.media.0.stream.frame_rate">30</property>
  <property name="meta.media.0.stream.sample_aspect_ratio">1</property>
  <property name="meta.media.0.codec.width">1920</property>
  <property name="meta.media.0.codec.height">1080</property>
  <property name="meta.media.0.codec.rotate">0</property>
  <property name="meta.media.0.codec.pix_fmt">yuv420p</property>
  <property name="meta.media.0.codec.sample_aspect_ratio">1</property>
  <property name="meta.media.0.codec.colorspace">709</property>
  <property name="meta.media.0.codec.color_trc">1</property>
  <property name="meta.media.0.codec.name">h264</property>
  <property name="meta.media.0.codec.long_name">H.264 / AVC / MPEG-4 AVC / MPEG-4 part 10</property>
  <property name="meta.media.0.codec.bit_rate">389806</property>
  <property name="meta.attr.0.stream.handler_name.markup">VideoHandler</property>
  <property name="meta.attr.0.stream.vendor_id.markup">[0][0][0][0]</property>
  <property name="meta.media.1.stream.type">audio</property>
  <property name="meta.media.1.codec.sample_fmt">fltp</property>
  <property name="meta.media.1.codec.sample_rate">48000</property>
  <property name="meta.media.1.codec.channels">2</property>
  <property name="meta.media.1.codec.name">aac</property>
  <property name="meta.media.1.codec.long_name">AAC (Advanced Audio Coding)</property>
  <property name="meta.media.1.codec.bit_rate">192000</property>
  <property name="meta.attr.1.stream.handler_name.markup">SoundHandler</property>
  <property name="meta.attr.1.stream.vendor_id.markup">[0][0][0][0]</property>
  <property name="meta.attr.major_brand.markup">isom</property>
  <property name="meta.attr.minor_version.markup">512</property>
  <property name="meta.attr.compatible_brands.markup">isomiso2avc1mp41</property>
  <property name="meta.attr.encoder.markup">Lavf58.76.100</property>
  <property name="meta.media.sample_aspect_num">1</property>
  <property name="meta.media.sample_aspect_den">1</property>
  <property name="meta.media.frame_rate_num">39211000</property>
  <property name="meta.media.frame_rate_den">1307033</property>
  <property name="meta.media.colorspace">709</property>
  <property name="meta.media.color_trc">1</property>
  <property name="meta.media.has_b_frames">1</property>
  <property name="meta.media.width">1920</property>
  <property name="meta.media.height">1080</property>
  <property name="meta.media.color_range">mpeg</property>
  <property name="meta.media.top_field_first">0</property>
  <property name="meta.media.progressive">1</property>
  <property name="set.test_audio">1</property>
  <property name="set.test_image">0</property>
 </producer>
 <producer id="producer60" in="00:00:00.000" out="00:00:56.533">
  <property name="length">1697</property>
  <property name="eof">pause</property>
  <property name="resource">Screen_Recording_20220227-133634_ComboKing.mp4</property>
  <property name="audio_index">0</property>
  <property name="video_index">1</property>
  <property name="mute_on_pause">0</property>
  <property name="mlt_service">avformat-novalidate</property>
  <property name="seekable">1</property>
  <property name="aspect_ratio">1</property>
  <property name="kdenlive:clipname"/>
  <property name="kdenlive:folderid">-1</property>
  <property name="kdenlive:id">58</property>
  <property name="kdenlive:file_size">31934220</property>
  <property name="kdenlive:file_hash">45427eeedcaae57cb95ac4a2f21453de</property>
  <property name="kdenlive:audio_max0">251</property>
  <property name="xml">was here</property>
  <property name="meta.media.nb_streams">2</property>
  <property name="meta.media.0.stream.type">audio</property>
  <property name="meta.media.0.codec.sample_fmt">fltp</property>
  <property name="meta.media.0.codec.sample_rate">48000</property>
  <property name="meta.media.0.codec.channels">2</property>
  <property name="meta.media.0.codec.name">aac</property>
  <property name="meta.media.0.codec.long_name">AAC (Advanced Audio Coding)</property>
  <property name="meta.media.0.codec.bit_rate">191935</property>
  <property name="meta.attr.0.stream.creation_time.markup">2022-02-27T13:36:33.000000Z</property>
  <property name="meta.attr.0.stream.language.markup">eng</property>
  <property name="meta.attr.0.stream.handler_name.markup">SoundHandle</property>
  <property name="meta.attr.0.stream.vendor_id.markup">[0][0][0][0]</property>
  <property name="meta.media.1.stream.type">video</property>
  <property name="meta.media.1.stream.frame_rate">59.9443</property>
  <property name="meta.media.1.stream.sample_aspect_ratio">1</property>
  <property name="meta.media.1.codec.width">2220</property>
  <property name="meta.media.1.codec.height">1080</property>
  <property name="meta.media.1.codec.rotate">0</property>
  <property name="meta.media.1.codec.pix_fmt">yuv420p</property>
  <property name="meta.media.1.codec.sample_aspect_ratio">0</property>
  <property name="meta.media.1.codec.colorspace">709</property>
  <property name="meta.media.1.codec.color_trc">1</property>
  <property name="meta.media.1.codec.name">h264</property>
  <property name="meta.media.1.codec.long_name">H.264 / AVC / MPEG-4 AVC / MPEG-4 part 10</property>
  <property name="meta.media.1.codec.bit_rate">4316912</property>
  <property name="meta.attr.1.stream.creation_time.markup">2022-02-27T13:36:33.000000Z</property>
  <property name="meta.attr.1.stream.language.markup">eng</property>
  <property name="meta.attr.1.stream.handler_name.markup">VideoHandle</property>
  <property name="meta.attr.1.stream.vendor_id.markup">[0][0][0][0]</property>
  <property name="meta.attr.major_brand.markup">mp42</property>
  <property name="meta.attr.minor_version.markup">0</property>
  <property name="meta.attr.compatible_brands.markup">isommp42</property>
  <property name="meta.attr.creation_time.markup">2022-02-27T13:36:33.000000Z</property>
  <property name="meta.attr.com.android.version.markup">10</property>
  <property name="meta.media.sample_aspect_num">1</property>
  <property name="meta.media.sample_aspect_den">1</property>
  <property name="meta.media.frame_rate_num">1019</property>
  <property name="meta.media.frame_rate_den">17</property>
  <property name="meta.media.colorspace">709</property>
  <property name="meta.media.color_trc">1</property>
  <property name="meta.media.has_b_frames">0</property>
  <property name="meta.media.width">2220</property>
  <property name="meta.media.height">1080</property>
  <property name="meta.media.color_range">mpeg</property>
  <property name="meta.media.variable_frame_rate">1</property>
  <property name="meta.media.top_field_first">0</property>
  <property name="meta.media.progressive">1</property>
  <property name="set.test_audio">1</property>
  <property name="set.test_image">0</property>
 </producer>
 <playlist id="playlist2">
  <entry producer="producer59" in="00:00:00.000" out="00:08:37.367">
   <property name="kdenlive:id">2</property>
   <filter id="filter7" in="00:08:36.367" out="00:08:37.367">
    <property name="start">1</property>
    <property name="level">1</property>
    <property name="mlt_service">brightness</property>
    <property name="kdenlive_id">fade_to_black</property>
    <property name="alpha">00:00:00.000=1;00:00:01.000=0</property>
    <property name="kdenlive:collapsed">0</property>
   </filter>
  </entry>
  <entry producer="producer59" in="00:17:13.833" out="00:19:27.700">
   <property name="kdenlive:id">2</property>
   <filter id="filter8" in="00:17:13.833" out="00:17:14.833">
    <property name="start">1</property>
    <property name="level">1</property>
    <property name="mlt_service">brightness</property>
    <property name="kdenlive_id">fade_from_black</property>
    <property name="alpha">00:00:00.000=0;00:00:01.000=1</property>
   </filter>
   <filter id="filter9" in="00:19:26.700" out="00:19:27.700">
    <property name="start">1</property>
    <property name="level">1</property>
    <property name="mlt_service">brightness</property>
    <property name="kdenlive_id">fade_to_black</property>
    <property name="alpha">00:00:00.000=1;00:00:01.000=0</property>
   </filter>
  </entry>
  <entry producer="producer59" in="00:20:16.767" out="00:21:37.700">
   <property name="kdenlive:id">2</property>
   <filter id="filter10" in="00:20:16.767" out="00:20:17.767">
    <property name="start">1</property>
    <property name="level">1</property>
    <property name="mlt_service">brightness</property>
    <property name="kdenlive_id">fade_from_black</property>
    <property name="alpha">00:00:00.000=0;00:00:01.000=1</property>
    <property name="kdenlive:collapsed">0</property>
   </filter>
   <filter id="filter11" in="00:21:36.700" out="00:21:37.700">
    <property name="start">1</property>
    <property name="level">1</property>
    <property name="mlt_service">brightness</property>
    <property name="kdenlive_id">fade_to_black</property>
    <property name="alpha">00:00:00.000=1;00:00:01.000=0</property>
    <property name="kdenlive:collapsed">0</property>
   </filter>
  </entry>
  <entry producer="producer60" in="00:00:00.000" out="00:00:56.533">
   <property name="kdenlive:id">58</property>
   <filter id="filter12" out="00:00:01.000">
    <property name="start">1</property>
    <property name="level">1</property>
    <property name="mlt_service">brightness</property>
    <property name="kdenlive_id">fade_from_black</property>
    <property name="alpha">00:00:00.000=0;00:00:01.000=1</property>
   </filter>
  </entry>
 </playlist>
 <playlist id="playlist3"/>
 <tractor id="tractor1" in="00:00:00.000" out="00:13:08.800">
  <property name="kdenlive:trackheight">67</property>
  <property name="kdenlive:timeline_active">1</property>
  <property name="kdenlive:collapsed">0</property>
  <property name="kdenlive:thumbs_format"/>
  <property name="kdenlive:audio_rec"/>
  <track hide="audio" producer="playlist2"/>
  <track hide="audio" producer="playlist3"/>
 </tractor>
 <playlist id="playlist4">
  <blank length="00:00:01.500"/>
  <entry producer="producer2" in="00:00:00.000" out="00:00:02.967">
   <property name="kdenlive:id">4</property>
  </entry>
  <blank length="00:00:13.167"/>
  <entry producer="producer3" in="00:00:00.000" out="00:00:02.967">
   <property name="kdenlive:id">5</property>
  </entry>
  <blank length="00:00:00.867"/>
  <entry producer="producer4" in="00:00:00.000" out="00:00:02.967">
   <property name="kdenlive:id">6</property>
  </entry>
  <blank length="00:00:04.933"/>
  <entry producer="producer5" in="00:00:00.000" out="00:00:02.967">
   <property name="kdenlive:id">7</property>
  </entry>
  <blank length="00:00:03.767"/>
  <entry producer="producer6" in="00:00:00.000" out="00:00:02.967">
   <property name="kdenlive:id">8</property>
  </entry>
  <blank length="00:00:01.567"/>
  <entry producer="producer7" in="00:00:00.000" out="00:00:02.967">
   <property name="kdenlive:id">9</property>
  </entry>
  <entry producer="producer8" in="00:00:00.000" out="00:00:02.967">
   <property name="kdenlive:id">10</property>
  </entry>
  <entry producer="producer9" in="00:00:00.000" out="00:00:02.967">
   <property name="kdenlive:id">11</property>
  </entry>
  <blank length="00:00:08.900"/>
  <entry producer="producer10" in="00:00:00.000" out="00:00:41.467">
   <property name="kdenlive:id">12</property>
  </entry>
  <blank length="00:00:22.233"/>
  <entry producer="producer12" in="00:00:00.000" out="00:00:02.967">
   <property name="kdenlive:id">14</property>
  </entry>
  <blank length="00:00:13.400"/>
  <entry producer="producer13" in="00:00:00.000" out="00:00:02.967">
   <property name="kdenlive:id">15</property>
  </entry>
  <entry producer="producer14" in="00:00:00.000" out="00:00:19.667">
   <property name="kdenlive:id">16</property>
  </entry>
  <blank length="00:00:00.433"/>
  <entry producer="producer15" in="00:00:00.000" out="00:00:02.967">
   <property name="kdenlive:id">17</property>
  </entry>
  <blank length="00:00:12.800"/>
  <entry producer="producer16" in="00:00:00.000" out="00:00:02.967">
   <property name="kdenlive:id">18</property>
  </entry>
  <blank length="00:00:05.200"/>
  <entry producer="producer17" in="00:00:00.000" out="00:00:02.967">
   <property name="kdenlive:id">19</property>
  </entry>
  <blank length="00:00:12.467"/>
  <entry producer="producer26" in="00:00:00.000" out="00:00:04.600">
   <property name="kdenlive:id">28</property>
  </entry>
  <blank length="00:00:07.433"/>
  <entry producer="producer28" in="00:00:00.000" out="00:00:02.967">
   <property name="kdenlive:id">30</property>
  </entry>
  <blank length="00:00:04.700"/>
  <entry producer="producer29" in="00:00:00.000" out="00:00:04.700">
   <property name="kdenlive:id">31</property>
  </entry>
  <blank length="00:00:02.800"/>
  <entry producer="producer30" in="00:00:00.000" out="00:00:16.433">
   <property name="kdenlive:id">32</property>
  </entry>
  <blank length="00:00:20.033"/>
  <entry producer="producer35" in="00:00:00.000" out="00:00:22.700">
   <property name="kdenlive:id">37</property>
  </entry>
  <blank length="00:00:19.867"/>
  <entry producer="producer36" in="00:00:00.000" out="00:00:10.233">
   <property name="kdenlive:id">38</property>
  </entry>
  <blank length="00:00:05.267"/>
  <entry producer="producer38" in="00:00:00.000" out="00:00:09.267">
   <property name="kdenlive:id">40</property>
  </entry>
  <blank length="00:00:01.767"/>
  <entry producer="producer39" in="00:00:00.000" out="00:00:02.967">
   <property name="kdenlive:id">41</property>
  </entry>
  <blank length="00:00:30.700"/>
  <entry producer="producer42" in="00:00:00.000" out="00:02:25.033">
   <property name="kdenlive:id">44</property>
  </entry>
  <blank length="00:00:09.967"/>
  <entry producer="producer43" in="00:00:00.000" out="00:00:02.967">
   <property name="kdenlive:id">45</property>
  </entry>
  <blank length="00:00:04.067"/>
  <entry producer="producer44" in="00:00:00.000" out="00:00:05.133">
   <property name="kdenlive:id">46</property>
  </entry>
  <blank length="00:00:21.000"/>
  <entry producer="producer45" in="00:00:00.000" out="00:00:09.533">
   <property name="kdenlive:id">47</property>
  </entry>
  <blank length="00:00:02.633"/>
  <entry producer="producer46" in="00:00:00.000" out="00:00:04.533">
   <property name="kdenlive:id">48</property>
  </entry>
  <blank length="00:00:28.867"/>
  <entry producer="producer47" in="00:00:00.000" out="00:00:10.800">
   <property name="kdenlive:id">49</property>
  </entry>
  <blank length="00:00:03.233"/>
  <entry producer="producer48" in="00:00:00.000" out="00:00:04.433">
   <property name="kdenlive:id">50</property>
  </entry>
  <blank length="00:00:03.867"/>
  <entry producer="producer49" in="00:00:00.000" out="00:00:03.300">
   <property name="kdenlive:id">51</property>
  </entry>
  <entry producer="producer50" in="00:00:00.000" out="00:00:02.967">
   <property name="kdenlive:id">52</property>
  </entry>
  <blank length="00:00:10.400"/>
  <entry producer="producer51" in="00:00:00.000" out="00:00:02.967">
   <property name="kdenlive:id">53</property>
  </entry>
  <blank length="00:00:02.000"/>
  <entry producer="producer52" in="00:00:00.000" out="00:00:02.967">
   <property name="kdenlive:id">54</property>
  </entry>
  <blank length="00:00:02.133"/>
  <entry producer="producer53" in="00:00:00.000" out="00:00:56.433">
   <property name="kdenlive:id">55</property>
  </entry>
  <blank length="00:00:02.033"/>
  <entry producer="producer54" in="00:00:00.000" out="00:00:22.433">
   <property name="kdenlive:id">56</property>
  </entry>
  <entry producer="producer55" in="00:00:00.000" out="00:00:56.533">
   <property name="kdenlive:id">57</property>
  </entry>
 </playlist>
 <playlist id="playlist5"/>
 <tractor id="tractor2" in="00:00:00.000" out="00:13:08.800">
  <property name="kdenlive:trackheight">67</property>
  <property name="kdenlive:timeline_active">1</property>
  <property name="kdenlive:collapsed">0</property>
  <property name="kdenlive:thumbs_format"/>
  <property name="kdenlive:audio_rec"/>
  <track hide="audio" producer="playlist4"/>
  <track hide="audio" producer="playlist5"/>
 </tractor>
 <tractor id="tractor3" in="00:00:00.000" out="00:29:48.833">
  <track producer="black_track"/>
  <track producer="tractor0"/>
  <track producer="tractor1"/>
  <track producer="tractor2"/>
  <transition id="transition0">
   <property name="a_track">0</property>
   <property name="b_track">1</property>
   <property name="mlt_service">mix</property>
   <property name="kdenlive_id">mix</property>
   <property name="internal_added">237</property>
   <property name="always_active">1</property>
   <property name="accepts_blanks">1</property>
   <property name="sum">1</property>
  </transition>
  <transition id="transition1">
   <property name="a_track">0</property>
   <property name="b_track">2</property>
   <property name="version">0.1</property>
   <property name="mlt_service">frei0r.cairoblend</property>
   <property name="kdenlive_id">frei0r.cairoblend</property>
   <property name="internal_added">237</property>
   <property name="always_active">1</property>
  </transition>
  <transition id="transition2">
   <property name="a_track">0</property>
   <property name="b_track">3</property>
   <property name="version">0.1</property>
   <property name="mlt_service">frei0r.cairoblend</property>
   <property name="kdenlive_id">frei0r.cairoblend</property>
   <property name="internal_added">237</property>
   <property name="always_active">1</property>
  </transition>
  <filter id="filter13">
   <property name="window">75</property>
   <property name="max_gain">20dB</property>
   <property name="mlt_service">volume</property>
   <property name="internal_added">237</property>
   <property name="disable">1</property>
  </filter>
  <filter id="filter14">
   <property name="channel">-1</property>
   <property name="mlt_service">panner</property>
   <property name="internal_added">237</property>
   <property name="start">0.5</property>
   <property name="disable">1</property>
  </filter>
  <filter id="filter15">
   <property name="iec_scale">0</property>
   <property name="mlt_service">audiolevel</property>
   <property name="disable">1</property>
  </filter>
 </tractor>
</mlt>
